  0
SECTION
  2
HEADER
  9
$ACADVER
  1
AC1015
  9
$ACADMAINTVER
 70
     6
  9
$DWGCODEPAGE
  3
ANSI_1252
  9
$INSBASE
 10
0.0
 20
0.0
 30
0.0
  9
$EXTMIN
 10
-4444.1762745596
 20
-869.3026143831
 30
0.0
  9
$EXTMAX
 10
-76.7062999761
 20
2628.6002801214
 30
0.0
  9
$LIMMIN
 10
0.0
 20
0.0
  9
$LIMMAX
 10
420.0
 20
297.0
  9
$ORTHOMODE
 70
     0
  9
$REGENMODE
 70
     1
  9
$FILLMODE
 70
     1
  9
$QTEXTMODE
 70
     0
  9
$MIRRTEXT
 70
     1
  9
$LTSCALE
 40
1.0
  9
$ATTMODE
 70
     1
  9
$TEXTSIZE
 40
3.175
  9
$TRACEWID
 40
1.0
  9
$TEXTSTYLE
  7
Standard
  9
$CLAYER
  8
0
  9
$CELTYPE
  6
ByLayer
  9
$CECOLOR
 62
   256
  9
$CELTSCALE
 40
1.0
  9
$DISPSILH
 70
     0
  9
$DIMSCALE
 40
1.0
  9
$DIMASZ
 40
3.302
  9
$DIMEXO
 40
1.27
  9
$DIMDLI
 40
3.75
  9
$DIMRND
 40
0.0
  9
$DIMDLE
 40
0.0
  9
$DIMEXE
 40
3.175
  9
$DIMTP
 40
0.0
  9
$DIMTM
 40
0.0
  9
$DIMTXT
 40
3.175
  9
$DIMCEN
 40
2.5
  9
$DIMTSZ
 40
0.0
  9
$DIMTOL
 70
     0
  9
$DIMLIM
 70
     0
  9
$DIMTIH
 70
     1
  9
$DIMTOH
 70
     1
  9
$DIMSE1
 70
     0
  9
$DIMSE2
 70
     0
  9
$DIMTAD
 70
     0
  9
$DIMZIN
 70
     1
  9
$DIMBLK
  1

  9
$DIMASO
 70
     1
  9
$DIMSHO
 70
     1
  9
$DIMPOST
  1

  9
$DIMAPOST
  1

  9
$DIMALT
 70
     0
  9
$DIMALTD
 70
     3
  9
$DIMALTF
 40
0.0393700787
  9
$DIMLFAC
 40
1.0
  9
$DIMTOFL
 70
     1
  9
$DIMTVP
 40
0.0
  9
$DIMTIX
 70
     0
  9
$DIMSOXD
 70
     0
  9
$DIMSAH
 70
     0
  9
$DIMBLK1
  1

  9
$DIMBLK2
  1

  9
$DIMSTYLE
  2
ISO-25
  9
$DIMCLRD
 70
     0
  9
$DIMCLRE
 70
     0
  9
$DIMCLRT
 70
     0
  9
$DIMTFAC
 40
1.0
  9
$DIMGAP
 40
1.524
  9
$DIMJUST
 70
     0
  9
$DIMSD1
 70
     0
  9
$DIMSD2
 70
     0
  9
$DIMTOLJ
 70
     0
  9
$DIMTZIN
 70
     1
  9
$DIMALTZ
 70
     0
  9
$DIMALTTZ
 70
     0
  9
$DIMUPT
 70
     0
  9
$DIMDEC
 70
     2
  9
$DIMTDEC
 70
     2
  9
$DIMALTU
 70
     2
  9
$DIMALTTD
 70
     3
  9
$DIMTXSTY
  7
Standard
  9
$DIMAUNIT
 70
     0
  9
$DIMADEC
 70
     2
  9
$DIMALTRND
 40
0.0
  9
$DIMAZIN
 70
     0
  9
$DIMDSEP
 70
    44
  9
$DIMATFIT
 70
     3
  9
$DIMFRAC
 70
     0
  9
$DIMLDRBLK
  1

  9
$DIMLUNIT
 70
     2
  9
$DIMLWD
 70
    -2
  9
$DIMLWE
 70
    -2
  9
$DIMTMOVE
 70
     0
  9
$LUNITS
 70
     2
  9
$LUPREC
 70
     2
  9
$SKETCHINC
 40
1.0
  9
$FILLETRAD
 40
10.0
  9
$AUNITS
 70
     0
  9
$AUPREC
 70
     2
  9
$MENU
  1
.
  9
$ELEVATION
 40
0.0
  9
$PELEVATION
 40
0.0
  9
$THICKNESS
 40
0.0
  9
$LIMCHECK
 70
     0
  9
$CHAMFERA
 40
0.0
  9
$CHAMFERB
 40
0.0
  9
$CHAMFERC
 40
0.0
  9
$CHAMFERD
 40
0.0
  9
$SKPOLY
 70
     0
  9
$TDCREATE
 40
2458940.82449088
  9
$TDUCREATE
 40
2458940.595324213
  9
$TDUPDATE
 40
2458940.824535602
  9
$TDUUPDATE
 40
2458940.595368935
  9
$TDINDWG
 40
0.0000000116
  9
$TDUSRTIMER
 40
0.0000000116
  9
$USRTIMER
 70
     1
  9
$ANGBASE
 50
0.0
  9
$ANGDIR
 70
     0
  9
$PDMODE
 70
     0
  9
$PDSIZE
 40
-1.0
  9
$PLINEWID
 40
0.0
  9
$SPLFRAME
 70
     0
  9
$SPLINETYPE
 70
     6
  9
$SPLINESEGS
 70
     8
  9
$HANDSEED
  5
1E2
  9
$SURFTAB1
 70
     6
  9
$SURFTAB2
 70
     6
  9
$SURFTYPE
 70
     6
  9
$SURFU
 70
     6
  9
$SURFV
 70
     6
  9
$UCSBASE
  2

  9
$UCSNAME
  2

  9
$UCSORG
 10
0.0
 20
0.0
 30
0.0
  9
$UCSXDIR
 10
1.0
 20
0.0
 30
0.0
  9
$UCSYDIR
 10
0.0
 20
1.0
 30
0.0
  9
$UCSORTHOREF
  2

  9
$UCSORTHOVIEW
 70
     0
  9
$UCSORGTOP
 10
0.0
 20
0.0
 30
0.0
  9
$UCSORGBOTTOM
 10
0.0
 20
0.0
 30
0.0
  9
$UCSORGLEFT
 10
0.0
 20
0.0
 30
0.0
  9
$UCSORGRIGHT
 10
0.0
 20
0.0
 30
0.0
  9
$UCSORGFRONT
 10
0.0
 20
0.0
 30
0.0
  9
$UCSORGBACK
 10
0.0
 20
0.0
 30
0.0
  9
$PUCSBASE
  2

  9
$PUCSNAME
  2

  9
$PUCSORG
 10
0.0
 20
0.0
 30
0.0
  9
$PUCSXDIR
 10
1.0
 20
0.0
 30
0.0
  9
$PUCSYDIR
 10
0.0
 20
1.0
 30
0.0
  9
$PUCSORTHOREF
  2

  9
$PUCSORTHOVIEW
 70
     0
  9
$PUCSORGTOP
 10
0.0
 20
0.0
 30
0.0
  9
$PUCSORGBOTTOM
 10
0.0
 20
0.0
 30
0.0
  9
$PUCSORGLEFT
 10
0.0
 20
0.0
 30
0.0
  9
$PUCSORGRIGHT
 10
0.0
 20
0.0
 30
0.0
  9
$PUCSORGFRONT
 10
0.0
 20
0.0
 30
0.0
  9
$PUCSORGBACK
 10
0.0
 20
0.0
 30
0.0
  9
$USERI1
 70
     0
  9
$USERI2
 70
     0
  9
$USERI3
 70
     0
  9
$USERI4
 70
     0
  9
$USERI5
 70
     0
  9
$USERR1
 40
0.0
  9
$USERR2
 40
0.0
  9
$USERR3
 40
0.0
  9
$USERR4
 40
0.0
  9
$USERR5
 40
0.0
  9
$WORLDVIEW
 70
     1
  9
$SHADEDGE
 70
     3
  9
$SHADEDIF
 70
    70
  9
$TILEMODE
 70
     1
  9
$MAXACTVP
 70
    64
  9
$PINSBASE
 10
0.0
 20
0.0
 30
0.0
  9
$PLIMCHECK
 70
     0
  9
$PEXTMIN
 10
1.0000000000E+20
 20
1.0000000000E+20
 30
1.0000000000E+20
  9
$PEXTMAX
 10
-1.0000000000E+20
 20
-1.0000000000E+20
 30
-1.0000000000E+20
  9
$PLIMMIN
 10
0.0
 20
0.0
  9
$PLIMMAX
 10
420.0
 20
297.0
  9
$UNITMODE
 70
     0
  9
$VISRETAIN
 70
     1
  9
$PLINEGEN
 70
     0
  9
$PSLTSCALE
 70
     1
  9
$TREEDEPTH
 70
  3020
  9
$CMLSTYLE
  2
Standard
  9
$CMLJUST
 70
     0
  9
$CMLSCALE
 40
20.0
  9
$PROXYGRAPHICS
 70
     1
  9
$MEASUREMENT
 70
     1
  9
$CELWEIGHT
370
    -1
  9
$ENDCAPS
280
     0
  9
$JOINSTYLE
280
     0
  9
$LWDISPLAY
290
     1
  9
$INSUNITS
 70
     4
  9
$HYPERLINKBASE
  1

  9
$STYLESHEET
  1

  9
$XEDIT
290
     1
  9
$CEPSNTYPE
380
     0
  9
$PSTYLEMODE
290
     1
  9
$FINGERPRINTGUID
  2
{3d48c18b-4345-41ea-9c8b-d456bae74bb0}
  9
$VERSIONGUID
  2
{FAEB1C32-E019-11D5-929B-00C0DF256EC4}
  9
$EXTNAMES
290
     1
  9
$PSVPSCALE
 40
0.0
  9
$OLESTARTUP
290
     0
  0
ENDSEC
  0
SECTION
  2
CLASSES
  0
CLASS
  1
ACDBDICTIONARYWDFLT
  2
AcDbDictionaryWithDefault
  3
ObjectDBX Classes
 90
        0
280
     0
281
     0
  0
CLASS
  1
VISUALSTYLE
  2
AcDbVisualStyle
  3
ObjectDBX Classes
 90
     4095
280
     0
281
     0
  0
CLASS
  1
MATERIAL
  2
AcDbMaterial
  3
ObjectDBX Classes
 90
     1153
280
     0
281
     0
  0
CLASS
  1
SCALE
  2
AcDbScale
  3
ObjectDBX Classes
 90
     1153
280
     0
281
     0
  0
CLASS
  1
TABLESTYLE
  2
AcDbTableStyle
  3
ObjectDBX Classes
 90
     4095
280
     0
281
     0
  0
CLASS
  1
MLEADERSTYLE
  2
AcDbMLeaderStyle
  3
ACDB_MLEADERSTYLE_CLASS
 90
     4095
280
     0
281
     0
  0
CLASS
  1
SUN
  2
AcDbSun
  3
SCENEOE
 90
     1153
280
     0
281
     0
  0
CLASS
  1
ACDBPLACEHOLDER
  2
AcDbPlaceHolder
  3
ObjectDBX Classes
 90
        0
280
     0
281
     0
  0
CLASS
  1
LAYOUT
  2
AcDbLayout
  3
ObjectDBX Classes
 90
        0
280
     0
281
     0
  0
ENDSEC
  0
SECTION
  2
TABLES
  0
TABLE
  2
VPORT
  5
8
330
0
100
AcDbSymbolTable
 70
     1
  0
VPORT
  5
29
330
8
100
AcDbSymbolTableRecord
100
AcDbViewportTableRecord
  2
*Active
 70
     0
 10
0.0
 20
0.0
 11
1.0
 21
1.0
 12
-2260.4412872679
 22
879.6488328691
 13
0.0
 23
0.0
 14
10.0
 24
10.0
 15
10.0
 25
10.0
 16
0.0
 26
0.0
 36
1.0
 17
0.0
 27
0.0
 37
0.0
 40
3567.8609523945
 41
1.2485966896
 42
50.0
 43
0.0
 44
0.0
 50
0.0
 51
0.0
 71
     0
 72
   100
 73
     1
 74
     3
 75
     0
 76
     0
 77
     0
 78
     0
281
     0
 65
     1
110
0.0
120
0.0
130
0.0
111
1.0
121
0.0
131
0.0
112
0.0
122
1.0
132
0.0
 79
     0
146
0.0
  0
ENDTAB
  0
TABLE
  2
LTYPE
  5
5
330
0
100
AcDbSymbolTable
 70
     6
  0
LTYPE
  5
14
330
5
100
AcDbSymbolTableRecord
100
AcDbLinetypeTableRecord
  2
ByBlock
 70
     0
  3

 72
    65
 73
     0
 40
0.0
  0
LTYPE
  5
15
330
5
100
AcDbSymbolTableRecord
100
AcDbLinetypeTableRecord
  2
ByLayer
 70
     0
  3

 72
    65
 73
     0
 40
0.0
  0
LTYPE
  5
16
330
5
100
AcDbSymbolTableRecord
100
AcDbLinetypeTableRecord
  2
Continuous
 70
     0
  3
Solid line
 72
    65
 73
     0
 40
0.0
  0
LTYPE
  5
6E
330
5
100
AcDbSymbolTableRecord
100
AcDbLinetypeTableRecord
  2
HIDDEN
 70
     0
  3
Hidden __ __ __ __ __ __ __ __ __ __ __ __ __ __
 72
    65
 73
     2
 40
1.905
 49
1.27
 74
     0
 49
-0.635
 74
     0
  0
LTYPE
  5
6F
330
5
100
AcDbSymbolTableRecord
100
AcDbLinetypeTableRecord
  2
PHANTOM
 70
     0
  3
Phantom ______  __  __  ______  __  __  ______
 72
    65
 73
     6
 40
12.7
 49
6.35
 74
     0
 49
-1.27
 74
     0
 49
1.27
 74
     0
 49
-1.27
 74
     0
 49
1.27
 74
     0
 49
-1.27
 74
     0
  0
LTYPE
  5
70
330
5
100
AcDbSymbolTableRecord
100
AcDbLinetypeTableRecord
  2
CENTER
 70
     0
  3
Center ____ _ ____ _ ____ _ ____ _ ____ _ ____
 72
    65
 73
     4
 40
10.16
 49
6.35
 74
     0
 49
-1.27
 74
     0
 49
1.27
 74
     0
 49
-1.27
 74
     0
  0
LTYPE
  5
71
330
5
100
AcDbSymbolTableRecord
100
AcDbLinetypeTableRecord
  2
CENTERX2
 70
     0
  3
Center (2x) ________  __  ________  __  _____
 72
    65
 73
     4
 40
20.32
 49
12.7
 74
     0
 49
-2.54
 74
     0
 49
2.54
 74
     0
 49
-2.54
 74
     0
  0
LTYPE
  5
72
330
5
100
AcDbSymbolTableRecord
100
AcDbLinetypeTableRecord
  2
DOT2
 70
     0
  3
Dot (.5x) ........................................
 72
    65
 73
     2
 40
0.635
 49
0.0
 74
     0
 49
-0.635
 74
     0
  0
ENDTAB
  0
TABLE
  2
LAYER
  5
2
330
0
100
AcDbSymbolTable
 70
     1
  0
LAYER
  5
10
330
2
100
AcDbSymbolTableRecord
100
AcDbLayerTableRecord
  2
0
 70
     0
 62
     7
  6
Continuous
370
    -3
390
F
  0
ENDTAB
  0
TABLE
  2
STYLE
  5
3
330
0
100
AcDbSymbolTable
 70
     1
  0
STYLE
  5
11
330
3
100
AcDbSymbolTableRecord
100
AcDbTextStyleTableRecord
  2
Standard
 70
     0
 40
0.0
 41
1.0
 50
0.0
 71
     0
 42
3.175
  3
txt
  4

  0
ENDTAB
  0
TABLE
  2
VIEW
  5
6
330
0
100
AcDbSymbolTable
 70
     0
  0
ENDTAB
  0
TABLE
  2
UCS
  5
7
330
0
100
AcDbSymbolTable
 70
     0
  0
ENDTAB
  0
TABLE
  2
APPID
  5
9
330
0
100
AcDbSymbolTable
 70
     1
  0
APPID
  5
12
330
9
100
AcDbSymbolTableRecord
100
AcDbRegAppTableRecord
  2
ACAD
 70
     0
  0
ENDTAB
  0
TABLE
  2
DIMSTYLE
  5
A
330
0
100
AcDbSymbolTable
 70
     1
100
AcDbDimStyleTable
  0
DIMSTYLE
105
27
330
A
100
AcDbSymbolTableRecord
100
AcDbDimStyleTableRecord
  2
ISO-25
 70
     0
 41
2.5
 42
0.625
 43
3.75
 44
1.25
 73
     0
 74
     0
 77
     1
 78
     8
140
2.5
141
2.5
143
0.0393700787
147
0.625
171
     3
172
     1
178
     0
271
     2
272
     2
274
     3
278
    44
283
     0
284
     8
340
11
  0
ENDTAB
  0
TABLE
  2
BLOCK_RECORD
  5
1
330
0
100
AcDbSymbolTable
 70
     1
  0
BLOCK_RECORD
  5
1F
330
1
100
AcDbSymbolTableRecord
100
AcDbBlockTableRecord
  2
*Model_Space
340
22
  0
BLOCK_RECORD
  5
1B
330
1
100
AcDbSymbolTableRecord
100
AcDbBlockTableRecord
  2
*Paper_Space
340
1E
  0
BLOCK_RECORD
  5
23
330
1
100
AcDbSymbolTableRecord
100
AcDbBlockTableRecord
  2
*Paper_Space0
340
26
  0
ENDTAB
  0
ENDSEC
  0
SECTION
  2
BLOCKS
  0
BLOCK
  5
20
330
1F
100
AcDbEntity
  8
0
100
AcDbBlockBegin
  2
*Model_Space
 70
     0
 10
0.0
 20
0.0
 30
0.0
  3
*Model_Space
  1

  0
ENDBLK
  5
21
330
1F
100
AcDbEntity
  8
0
100
AcDbBlockEnd
  0
BLOCK
  5
1C
330
1B
100
AcDbEntity
 67
     1
  8
0
100
AcDbBlockBegin
  2
*Paper_Space
 70
     0
 10
0.0
 20
0.0
 30
0.0
  3
*Paper_Space
  1

  0
ENDBLK
  5
1D
330
1B
100
AcDbEntity
 67
     1
  8
0
100
AcDbBlockEnd
  0
BLOCK
  5
24
330
23
100
AcDbEntity
  8
0
100
AcDbBlockBegin
  2
*Paper_Space0
 70
     0
 10
0.0
 20
0.0
 30
0.0
  3
*Paper_Space0
  1

  0
ENDBLK
  5
25
330
23
100
AcDbEntity
  8
0
100
AcDbBlockEnd
  0
ENDSEC
  0
SECTION
  2
ENTITIES
  0
CIRCLE
  5
73
330
1F
100
AcDbEntity
  8
0
  6
Continuous
 62
     7
100
AcDbCircle
 10
-4069.3568603251
 20
774.1390525987
 30
0.0
 40
50.0
  0
ARC
  5
74
330
1F
100
AcDbEntity
  8
0
  6
Continuous
 62
     7
100
AcDbCircle
 10
-224.3666014443
 20
963.8317444953
 30
0.0
 40
15.00000000000001
100
AcDbArc
 50
66.4859857212
 51
171.7728204609
  0
ARC
  5
75
330
1F
100
AcDbEntity
  8
0
  6
Continuous
 62
     7
100
AcDbCircle
 10
-179.6427224654
 20
2568.60028
 30
0.0
 40
60.00000000000045
100
AcDbArc
 50
90.0
 51
171.2424303224
  0
CIRCLE
  5
76
330
1F
100
AcDbEntity
  8
0
  6
Continuous
 62
     7
100
AcDbCircle
 10
-451.5281796749
 20
774.1390525987
 30
0.0
 40
50.00000000000004
  0
ARC
  5
77
330
1F
100
AcDbEntity
  8
0
  6
Continuous
 62
     7
100
AcDbCircle
 10
-207.8227617831
 20
1099.9919934617
 30
0.0
 40
15.0
100
AcDbArc
 50
174.3891233455
 51
279.1919101635
  0
ARC
  5
78
330
1F
100
AcDbEntity
  8
0
  6
Continuous
 62
     7
100
AcDbCircle
 10
-181.1150566358
 20
1470.9764340552
 30
0.0
 40
15.00000000000001
100
AcDbArc
 50
71.4224822344
 51
177.3538817555
  0
ARC
  5
79
330
1F
100
AcDbEntity
  8
0
  6
Continuous
 62
     7
100
AcDbCircle
 10
-176.2436637068
 20
1608.2899571877
 30
0.0
 40
15.00000000000019
100
AcDbArc
 50
178.4088889533
 51
284.1277469399
  0
ARC
  5
7A
330
1F
100
AcDbEntity
  8
0
  6
Continuous
 62
     7
100
AcDbCircle
 10
-4341.2423175347
 20
2568.60028
 30
0.0
 40
60.00000000000188
100
AcDbArc
 50
8.7575696776
 51
90.0
  0
ARC
  5
7B
330
1F
100
AcDbEntity
  8
0
  6
Continuous
 62
     7
100
AcDbCircle
 10
-815.0933760128
 20
190.4772465968
 30
0.0
 40
63.45926657307051
100
AcDbArc
 50
359.9655042203
 51
90.0369131288
  0
ARC
  5
7C
330
1F
100
AcDbEntity
  8
0
  6
Continuous
 62
     7
100
AcDbCircle
 10
-815.1770853754
 20
190.4793270377
 30
0.0
 40
63.4571874131307
100
AcDbArc
 50
89.9613327733
 51
180.0363753497
  0
ARC
  5
7D
330
1F
100
AcDbEntity
  8
0
  6
Continuous
 62
     7
100
AcDbCircle
 10
-815.1739959871
 20
190.3993040129
 30
0.0
 40
63.46027645337177
100
AcDbArc
 50
179.9641239428
 51
270.0358760572
  0
ARC
  5
7E
330
1F
100
AcDbEntity
  8
0
  6
Continuous
 62
     7
100
AcDbCircle
 10
-815.0929128015
 20
190.3976911983
 30
0.0
 40
63.45866466847836
100
AcDbArc
 50
269.9626682952
 51
0.0350398277
  0
ARC
  5
7F
330
1F
100
AcDbEntity
  8
0
  6
Continuous
 62
     7
100
AcDbCircle
 10
-4393.3830913176
 20
2577.8075068585
 30
0.0
 40
50.79277326287959
100
AcDbArc
 50
89.9960391279
 51
135.3714568891
  0
ARC
  5
80
330
1F
100
AcDbEntity
  8
0
  6
Continuous
 62
     7
100
AcDbCircle
 10
-1439.9613062103
 20
-191.6122662102
 30
0.0
 40
63.46165780004142
100
AcDbArc
 50
359.9653726283
 51
90.0346273717
  0
ARC
  5
81
330
1F
100
AcDbEntity
  8
0
  6
Continuous
 62
     7
100
AcDbCircle
 10
-1440.0388847435
 20
-191.6113952565
 30
0.0
 40
63.46078737882659
100
AcDbArc
 50
89.9645858098
 51
180.0354141903
  0
ARC
  5
82
330
1F
100
AcDbEntity
  8
0
  6
Continuous
 62
     7
100
AcDbCircle
 10
-1440.0379009771
 20
-191.6888609772
 30
0.0
 40
63.46177054455141
100
AcDbArc
 50
179.9654745415
 51
270.0345254585
  0
ARC
  5
83
330
1F
100
AcDbEntity
  8
0
  6
Continuous
 62
     7
100
AcDbCircle
 10
-1439.9604350864
 20
-191.6898449137
 30
0.0
 40
63.4607872087388
100
AcDbArc
 50
269.964585656
 51
0.035414344
  0
ARC
  5
84
330
1F
100
AcDbEntity
  8
0
  6
Continuous
 62
     7
100
AcDbCircle
 10
-2246.2827733712
 20
-277.8095572226
 30
0.0
 40
63.4615097573116
100
AcDbArc
 50
359.9675312566
 51
90.0360113658
  0
ARC
  5
85
330
1F
100
AcDbEntity
  8
0
  6
Continuous
 62
     7
100
AcDbCircle
 10
-2246.3654855918
 20
-277.8052327459
 30
0.0
 40
63.45718719686463
100
AcDbArc
 50
89.9613325778
 51
180.0363755452
  0
ARC
  5
86
330
1F
100
AcDbEntity
  8
0
  6
Continuous
 62
     7
100
AcDbCircle
 10
-2246.3629241416
 20
-277.8857841416
 30
0.0
 40
63.4597486318721
100
AcDbArc
 50
179.9636467906
 51
270.0363532095
  0
ARC
  5
87
330
1F
100
AcDbEntity
  8
0
  6
Continuous
 62
     7
100
AcDbCircle
 10
-2246.2834351413
 20
-277.8847448587
 30
0.0
 40
63.46078726362034
100
AcDbArc
 50
269.9645857057
 51
0.0354142944
  0
ARC
  5
88
330
1F
100
AcDbEntity
  8
0
  6
Continuous
 62
     7
100
AcDbCircle
 10
-3091.0808778705
 20
-158.2095508428
 30
0.0
 40
63.46248231688643
100
AcDbArc
 50
359.9638243941
 51
90.0344538853
  0
ARC
  5
89
330
1F
100
AcDbEntity
  8
0
  6
Continuous
 62
     7
100
AcDbCircle
 10
-3091.158263547
 20
-158.2078557125
 30
0.0
 40
63.46078857503321
100
AcDbArc
 50
89.9635205185
 51
180.0354137779
  0
ARC
  5
8A
330
1F
100
AcDbEntity
  8
0
  6
Continuous
 62
     7
100
AcDbCircle
 10
-3091.1603328819
 20
-158.2926403911
 30
0.0
 40
63.45699304396891
100
AcDbArc
 50
179.9588631887
 51
270.0372836454
  0
ARC
  5
8B
330
1F
100
AcDbEntity
  8
0
  6
Continuous
 62
     7
100
AcDbCircle
 10
-3091.079182132
 20
-158.2888457341
 30
0.0
 40
63.4607860517926
100
AcDbArc
 50
269.9650805626
 51
0.0354150854
  0
ARC
  5
8C
330
1F
100
AcDbEntity
  8
0
  6
Continuous
 62
     7
100
AcDbCircle
 10
-3754.1640855395
 20
209.1749643921
 30
0.0
 40
63.46356650728688
100
AcDbArc
 50
359.9648043531
 51
90.0335796717
  0
ARC
  5
8D
330
1F
100
AcDbEntity
  8
0
  6
Continuous
 62
     7
100
AcDbCircle
 10
-3754.2405034177
 20
209.1777442329
 30
0.0
 40
63.46078870432797
100
AcDbArc
 50
89.9634148234
 51
180.0354137285
  0
ARC
  5
8E
330
1F
100
AcDbEntity
  8
0
  6
Continuous
 62
     7
100
AcDbCircle
 10
-3754.2414249338
 20
209.0939903646
 30
0.0
 40
63.45802306289897
100
AcDbArc
 50
179.9597945184
 51
270.0362465661
  0
ARC
  5
8F
330
1F
100
AcDbEntity
  8
0
  6
Continuous
 62
     7
100
AcDbCircle
 10
-3754.1613048136
 20
209.0967541447
 30
0.0
 40
63.46078593071761
100
AcDbArc
 50
269.9650804531
 51
0.0354151948
  0
ARC
  5
90
330
1F
100
AcDbEntity
  8
0
  6
Continuous
 62
     7
100
AcDbCircle
 10
-4393.3932395924
 20
2577.8110886228
 30
0.0
 40
50.78303496722725
100
AcDbArc
 50
135.366289312
 51
180.7515788154
  0
ARC
  5
91
330
1F
100
AcDbEntity
  8
0
  6
Continuous
 62
     7
100
AcDbCircle
 10
-4358.4689075421
 20
1834.3068153255
 30
0.0
 40
76.17388625882788
100
AcDbArc
 50
179.9866981026
 51
249.893689984
  0
ARC
  5
92
330
1F
100
AcDbEntity
  8
0
  6
Continuous
 62
     7
100
AcDbCircle
 10
-127.5078469171
 20
2577.8012995236
 30
0.0
 40
50.80154694093586
100
AcDbArc
 50
359.2597365012
 51
44.6286124581
  0
ARC
  5
93
330
1F
100
AcDbEntity
  8
0
  6
Continuous
 62
     7
100
AcDbCircle
 10
-127.5023783889
 20
2577.8057549155
 30
0.0
 40
50.79452517803975
100
AcDbArc
 50
44.6293692221
 51
90.0034760303
  0
ARC
  5
94
330
1F
100
AcDbEntity
  8
0
  6
Continuous
 62
     7
100
AcDbCircle
 10
-162.4212757398
 20
1834.3153292595
 30
0.0
 40
76.1806562917627
100
AcDbArc
 50
299.3079909695
 51
0.006897351
  0
ARC
  5
95
330
1F
100
AcDbEntity
  8
0
  6
Continuous
 62
     7
100
AcDbCircle
 10
-62.9620857239
 20
1657.1595901197
 30
0.0
 40
126.9850062830747
100
AcDbArc
 50
119.312529266
 51
178.6773804687
  0
ARC
  5
96
330
1F
100
AcDbEntity
  8
0
  6
Continuous
 62
     7
100
AcDbCircle
 10
-102.2654127969
 20
1575.1082547285
 30
0.0
 40
25.39633624665415
100
AcDbArc
 50
357.7682446556
 51
71.8236754561
  0
ARC
  5
97
330
1F
100
AcDbEntity
  8
0
  6
Continuous
 62
     7
100
AcDbCircle
 10
-105.2345728085
 20
1498.512951451
 30
0.0
 40
25.39080261808425
100
AcDbArc
 50
283.8263441746
 51
357.7885865293
  0
ARC
  5
98
330
1F
100
AcDbEntity
  8
0
  6
Continuous
 62
     7
100
AcDbCircle
 10
-136.5032609632
 20
1060.6476876094
 30
0.0
 40
25.39395348480931
100
AcDbArc
 50
352.8300610812
 51
66.88751274
  0
ARC
  5
99
330
1F
100
AcDbEntity
  8
0
  6
Continuous
 62
     7
100
AcDbCircle
 10
-146.0512664651
 20
984.5879394079
 30
0.0
 40
25.39006418202596
100
AcDbArc
 50
278.8883964435
 51
352.8565861916
  0
ARC
  5
9A
330
1F
100
AcDbEntity
  8
0
  6
Continuous
 62
     7
100
AcDbCircle
 10
-413.5053064521
 20
54.0442006211
 30
0.0
 40
25.3973474926632
100
AcDbArc
 50
331.4533365272
 51
45.499967403
  0
ARC
  5
9B
330
1F
100
AcDbEntity
  8
0
  6
Continuous
 62
     7
100
AcDbCircle
 10
-450.1277081492
 20
-13.2918494262
 30
0.0
 40
25.39399540554998
100
AcDbArc
 50
257.5089082918
 51
331.4704625589
  0
ARC
  5
9C
330
1F
100
AcDbEntity
  8
0
  6
Continuous
 62
     7
100
AcDbCircle
 10
-731.6215013798
 20
-377.6156215404
 30
0.0
 40
25.39339330381627
100
AcDbArc
 50
311.8720764673
 51
25.929856939
  0
ARC
  5
9D
330
1F
100
AcDbEntity
  8
0
  6
Continuous
 62
     7
100
AcDbCircle
 10
-788.6908632949
 20
-428.794381968
 30
0.0
 40
25.38753520726689
100
AcDbArc
 50
237.9243028443
 51
311.9012758721
  0
ARC
  5
9E
330
1F
100
AcDbEntity
  8
0
  6
Continuous
 62
     7
100
AcDbCircle
 10
-1178.7754995923
 20
-674.1036091967
 30
0.0
 40
25.3914668570191
100
AcDbArc
 50
292.0434939019
 51
6.1105946657
  0
ARC
  5
9F
330
1F
100
AcDbEntity
  8
0
  6
Continuous
 62
     7
100
AcDbCircle
 10
-1249.8237688376
 20
-702.8943336347
 30
0.0
 40
25.38675391129001
100
AcDbArc
 50
218.0985902526
 51
292.077241065
  0
ARC
  5
A0
330
1F
100
AcDbEntity
  8
0
  6
Continuous
 62
     7
100
AcDbCircle
 10
-1690.3361129697
 20
-813.6143073992
 30
0.0
 40
25.39501552310736
100
AcDbArc
 50
276.8626303336
 51
350.9166202101
  0
ARC
  5
A1
330
1F
100
AcDbEntity
  8
0
  6
Continuous
 62
     7
100
AcDbCircle
 10
-1766.4378803487
 20
-822.7893549318
 30
0.0
 40
25.39294113641605
100
AcDbArc
 50
202.9188214136
 51
276.8823919848
  0
ARC
  5
A2
330
1F
100
AcDbEntity
  8
0
  6
Continuous
 62
     7
100
AcDbCircle
 10
-2208.2563325609
 20
-843.9135658241
 30
0.0
 40
25.38904855897795
100
AcDbArc
 50
269.7148689965
 51
343.7889183022
  0
ARC
  5
A3
330
1F
100
AcDbEntity
  8
0
  6
Continuous
 62
     7
100
AcDbCircle
 10
-2284.9123418183
 20
-843.5544117906
 30
0.0
 40
25.39253652925838
100
AcDbArc
 50
195.7819023006
 51
269.7466092911
  0
ARC
  5
A4
330
1F
100
AcDbEntity
  8
0
  6
Continuous
 62
     7
100
AcDbCircle
 10
-2726.6823154207
 20
-822.595122136
 30
0.0
 40
25.39539681129746
100
AcDbArc
 50
262.6329210292
 51
336.6880539058
  0
ARC
  5
A5
330
1F
100
AcDbEntity
  8
0
  6
Continuous
 62
     7
100
AcDbCircle
 10
-2802.7049906179
 20
-812.7810802269
 30
0.0
 40
25.3910022893325
100
AcDbArc
 50
188.6847875598
 51
262.6558368069
  0
ARC
  5
A6
330
1F
100
AcDbEntity
  8
0
  6
Continuous
 62
     7
100
AcDbCircle
 10
-3243.1469740739
 20
-702.201532304
 30
0.0
 40
25.38717365866417
100
AcDbArc
 50
247.4936171852
 51
321.5680815323
  0
ARC
  5
A7
330
1F
100
AcDbEntity
  8
0
  6
Continuous
 62
     7
100
AcDbCircle
 10
-3313.9834843448
 20
-672.8837026099
 30
0.0
 40
25.38394013554257
100
AcDbArc
 50
173.5488883676
 51
247.5330216441
  0
ARC
  5
A8
330
1F
100
AcDbEntity
  8
0
  6
Continuous
 62
     7
100
AcDbCircle
 10
-3706.0108617799
 20
-429.1640992756
 30
0.0
 40
25.39251890212816
100
AcDbArc
 50
227.1125023657
 51
301.1708582344
  0
ARC
  5
A9
330
1F
100
AcDbEntity
  8
0
  6
Continuous
 62
     7
100
AcDbCircle
 10
-3762.1895737673
 20
-377.0090375024
 30
0.0
 40
25.39092471157358
100
AcDbArc
 50
153.1705190031
 51
227.1373422737
  0
ARC
  5
AA
330
1F
100
AcDbEntity
  8
0
  6
Continuous
 62
     7
100
AcDbCircle
 10
-4041.1670301478
 20
-12.2627701921
 30
0.0
 40
25.39120669917813
100
AcDbArc
 50
208.4491544692
 51
282.5117120606
  0
ARC
  5
AB
330
1F
100
AcDbEntity
  8
0
  6
Continuous
 62
     7
100
AcDbCircle
 10
-4077.6964219903
 20
55.127977192
 30
0.0
 40
25.39210949852286
100
AcDbArc
 50
134.5099490149
 51
208.4727606436
  0
ARC
  5
AC
330
1F
100
AcDbEntity
  8
0
  6
Continuous
 62
     7
100
AcDbCircle
 10
-4346.8502449293
 20
985.734926116
 30
0.0
 40
25.3823972864568
100
AcDbArc
 50
186.3290385918
 51
260.4168390284
  0
ARC
  5
AD
330
1F
100
AcDbEntity
  8
0
  6
Continuous
 62
     7
100
AcDbCircle
 10
-4355.3384140412
 20
1061.928765393
 30
0.0
 40
25.39155440761939
100
AcDbArc
 50
112.4086810745
 51
186.3761950144
  0
ARC
  5
AE
330
1F
100
AcDbEntity
  8
0
  6
Continuous
 62
     7
100
AcDbCircle
 10
-4386.0256669303
 20
1499.0143587709
 30
0.0
 40
25.38073864209916
100
AcDbArc
 50
181.9162533009
 51
256.012663895
  0
ARC
  5
AF
330
1F
100
AcDbEntity
  8
0
  6
Continuous
 62
     7
100
AcDbCircle
 10
-4388.6340777311
 20
1575.6373101304
 30
0.0
 40
25.38785195847215
100
AcDbArc
 50
107.9938070838
 51
181.9702979542
  0
ARC
  5
B0
330
1F
100
AcDbEntity
  8
0
  6
Continuous
 62
     7
100
AcDbCircle
 10
-4428.3129900271
 20
1643.5411596362
 30
0.0
 40
126.9756431549283
100
AcDbArc
 50
1.7888937483
 51
69.8894770508
  0
ARC
  5
B1
330
1F
100
AcDbEntity
  8
0
  6
Continuous
 62
     7
100
AcDbCircle
 10
-4284.1220143626
 20
1100.4290198577
 30
0.0
 40
15.0000000000008
100
AcDbArc
 50
260.0046169809
 51
5.4609737773
  0
ARC
  5
B2
330
1F
100
AcDbEntity
  8
0
  6
Continuous
 62
     7
100
AcDbCircle
 10
-4025.3880220296
 20
117.7677284219
 30
0.0
 40
15.00000000000053
100
AcDbArc
 50
282.1028332666
 51
26.2495856206
  0
ARC
  5
B3
330
1F
100
AcDbEntity
  8
0
  6
Continuous
 62
     7
100
AcDbCircle
 10
-3732.1634847813
 20
-300.6168103445
 30
0.0
 40
15.00000000000028
100
AcDbArc
 50
300.7684781408
 51
44.0076268075
  0
ARC
  5
B4
330
1F
100
AcDbEntity
  8
0
  6
Continuous
 62
     7
100
AcDbCircle
 10
-3312.6837394994
 20
-591.1095971733
 30
0.0
 40
15.00000000000039
100
AcDbArc
 50
321.1558756869
 51
64.9773504189
  0
ARC
  5
B5
330
1F
100
AcDbEntity
  8
0
  6
Continuous
 62
     7
100
AcDbCircle
 10
-2823.0330738003
 20
-734.0475347494
 30
0.0
 40
15.00000000000027
100
AcDbArc
 50
336.2835039202
 51
81.0876001695
  0
ARC
  5
B6
330
1F
100
AcDbEntity
  8
0
  6
Continuous
 62
     7
100
AcDbCircle
 10
-2687.14375488
 20
-751.046105902
 30
0.0
 40
15.0000000000006
100
AcDbArc
 50
84.6976460667
 51
188.9903673054
  0
ARC
  5
B7
330
1F
100
AcDbEntity
  8
0
  6
Continuous
 62
     7
100
AcDbCircle
 10
-2315.0244258718
 20
-768.6601191276
 30
0.0
 40
15.00000000000008
100
AcDbArc
 50
343.3780397537
 51
89.2899376587
  0
ARC
  5
B8
330
1F
100
AcDbEntity
  8
0
  6
Continuous
 62
     7
100
AcDbCircle
 10
-1805.4920734299
 20
-751.4307901639
 30
0.0
 40
14.99999999999998
100
AcDbArc
 50
350.5140340782
 51
95.1419754174
  0
ARC
  5
B9
330
1F
100
AcDbEntity
  8
0
  6
Continuous
 62
     7
100
AcDbCircle
 10
-1669.6167208589
 20
-734.5037875432
 30
0.0
 40
15.00000000000009
100
AcDbArc
 50
98.9755181007
 51
203.2212661668
  0
ARC
  5
BA
330
1F
100
AcDbEntity
  8
0
  6
Continuous
 62
     7
100
AcDbCircle
 10
-1306.2651222272
 20
-643.6358070094
 30
0.0
 40
15.0
100
AcDbArc
 50
5.7012353565
 51
109.3892859481
  0
ARC
  5
BB
330
1F
100
AcDbEntity
  8
0
  6
Continuous
 62
     7
100
AcDbCircle
 10
-1179.8491902656
 20
-591.8911459838
 30
0.0
 40
15.00000000000015
100
AcDbArc
 50
114.9199343781
 51
218.4075019671
  0
ARC
  5
BC
330
1F
100
AcDbEntity
  8
0
  6
Continuous
 62
     7
100
AcDbCircle
 10
-861.983836533
 20
-391.9805140083
 30
0.0
 40
15.00000000000005
100
AcDbArc
 50
25.5252122935
 51
128.7554129626
  0
ARC
  5
BD
330
1F
100
AcDbEntity
  8
0
  6
Continuous
 62
     7
100
AcDbCircle
 10
-760.6338481905
 20
-300.5614234842
 30
0.0
 40
15.00000000000002
100
AcDbArc
 50
134.9865829663
 51
238.2309020052
  0
ARC
  5
BE
330
1F
100
AcDbEntity
  8
0
  6
Continuous
 62
     7
100
AcDbCircle
 10
-531.2141053638
 20
-3.4711177738
 30
0.0
 40
15.00000000000009
100
AcDbArc
 50
45.0998446855
 51
149.1622200508
  0
ARC
  5
BF
330
1F
100
AcDbEntity
  8
0
  6
Continuous
 62
     7
100
AcDbCircle
 10
-466.4650189002
 20
116.8820944043
 30
0.0
 40
15.0
100
AcDbArc
 50
154.4980313948
 51
257.8072266257
  0
ARC
  5
C0
330
1F
100
AcDbEntity
  8
0
  6
Continuous
 62
     7
100
AcDbCircle
 10
-4315.140186143
 20
1608.5484543829
 30
0.0
 40
15.00000000000018
100
AcDbArc
 50
255.5065300137
 51
1.9309616158
  0
ARC
  5
C1
330
1F
100
AcDbEntity
  8
0
  6
Continuous
 62
     7
100
AcDbCircle
 10
-4309.7843443706
 20
1471.3318636317
 30
0.0
 40
15.0000000000001
100
AcDbArc
 50
2.7633218388
 51
108.3047406141
  0
ARC
  5
C2
330
1F
100
AcDbEntity
  8
0
  6
Continuous
 62
     7
100
AcDbCircle
 10
-2177.6636800775
 20
-768.7038145533
 30
0.0
 40
15.00000000000034
100
AcDbArc
 50
90.7601286347
 51
196.0840828405
  0
ARC
  5
C3
330
1F
100
AcDbEntity
  8
0
  6
Continuous
 62
     7
100
AcDbCircle
 10
-3186.2579269815
 20
-642.9580783979
 30
0.0
 40
15.00000000000024
100
AcDbArc
 50
70.2152194644
 51
173.8632210363
  0
ARC
  5
C4
330
1F
100
AcDbEntity
  8
0
  6
Continuous
 62
     7
100
AcDbCircle
 10
-3631.8140179347
 20
-392.9849684974
 30
0.0
 40
15.00000000000014
100
AcDbArc
 50
50.957223718
 51
153.4775690329
  0
ARC
  5
C5
330
1F
100
AcDbEntity
  8
0
  6
Continuous
 62
     7
100
AcDbCircle
 10
-3959.6547856095
 20
-2.0951189826
 30
0.0
 40
14.99999999999983
100
AcDbArc
 50
31.4254452687
 51
134.8104887412
  0
ARC
  5
C6
330
1F
100
AcDbEntity
  8
0
  6
Continuous
 62
     7
100
AcDbCircle
 10
-4268.3351522582
 20
964.1493706389
 30
0.0
 40
15.00000000000006
100
AcDbArc
 50
7.7881942366
 51
112.7113383237
  0
LINE
  5
C7
330
1F
100
AcDbEntity
  8
0
  6
Continuous
 62
     7
100
AcDbLine
 10
-4434.64442
 20
1840.93866
 30
0.0
 11
-4434.64442
 21
1834.3245
 31
0.0
  0
LINE
  5
C8
330
1F
100
AcDbEntity
  8
0
  6
Continuous
 62
     7
100
AcDbLine
 10
-4434.64442
 20
1840.93866
 30
0.0
 11
-4444.1745
 21
2577.14496
 31
0.0
  0
LINE
  5
C9
330
1F
100
AcDbEntity
  8
0
  6
Continuous
 62
     7
100
AcDbLine
 10
-4434.64442
 20
1840.93866
 30
0.0
 11
-4434.64442
 21
1834.3245
 31
0.0
  0
LINE
  5
CA
330
1F
100
AcDbEntity
  8
0
  6
Continuous
 62
     7
100
AcDbLine
 10
-4434.64442
 20
1840.93866
 30
0.0
 11
-4444.1719055176
 21
2577.14496
 31
0.0
  0
LINE
  5
CB
330
1F
100
AcDbEntity
  8
0
  6
Continuous
 62
     7
100
AcDbLine
 10
-4393.37958
 20
2628.60028
 30
0.0
 11
-4341.2423175347
 21
2628.60028
 31
0.0
  0
LINE
  5
CC
330
1F
100
AcDbEntity
  8
0
  6
Continuous
 62
     7
100
AcDbLine
 10
-127.50546
 20
2628.60028
 30
0.0
 11
-179.6427224653
 21
2628.60028
 31
0.0
  0
LINE
  5
CD
330
1F
100
AcDbEntity
  8
0
  6
Continuous
 62
     7
100
AcDbLine
 10
-86.24062
 20
1840.93866
 30
0.0
 11
-76.71054
 21
2577.14496
 31
0.0
  0
LINE
  5
CE
330
1F
100
AcDbEntity
  8
0
  6
Continuous
 62
     7
100
AcDbLine
 10
-86.24062
 20
1840.93866
 30
0.0
 11
-86.24062
 21
1834.3245
 31
0.0
  0
LINE
  5
CF
330
1F
100
AcDbEntity
  8
0
  6
Continuous
 62
     7
100
AcDbLine
 10
-125.95098
 20
1605.48066
 30
0.0
 11
-172.5823936806
 21
1593.7436483159
 31
0.0
  0
LINE
  5
D0
330
1F
100
AcDbEntity
  8
0
  6
Continuous
 62
     7
100
AcDbLine
 10
-94.34322
 20
1599.23734
 30
0.0
 11
-111.8235
 21
1604.98028
 31
0.0
  0
LINE
  5
D1
330
1F
100
AcDbEntity
  8
0
  6
Continuous
 62
     7
100
AcDbLine
 10
-79.86268
 20
1497.5332
 30
0.0
 11
-76.88834
 21
1574.11928
 31
0.0
  0
LINE
  5
D2
330
1F
100
AcDbEntity
  8
0
  6
Continuous
 62
     7
100
AcDbLine
 10
-117.06352
 20
1469.44842
 30
0.0
 11
-99.16668
 21
1473.85786
 31
0.0
  0
LINE
  5
D3
330
1F
100
AcDbEntity
  8
0
  6
Continuous
 62
     7
100
AcDbLine
 10
-176.3362457732
 20
1485.1948364528
 30
0.0
 11
-131.23164
 21
1470.03516
 31
0.0
  0
LINE
  5
D4
330
1F
100
AcDbEntity
  8
0
  6
Continuous
 62
     7
100
AcDbLine
 10
-157.49016
 20
1092.94168
 30
0.0
 11
-205.4266346616
 21
1085.1846110185
 31
0.0
  0
LINE
  5
D5
330
1F
100
AcDbEntity
  8
0
  6
Continuous
 62
     7
100
AcDbLine
 10
-126.53518
 20
1084.00342
 30
0.0
 11
-143.4592
 21
1091.22718
 31
0.0
  0
LINE
  5
D6
330
1F
100
AcDbEntity
  8
0
  6
Continuous
 62
     7
100
AcDbLine
 10
-120.85828
 20
981.4306
 30
0.0
 11
-111.30788
 21
1057.4782
 31
0.0
  0
LINE
  5
D7
330
1F
100
AcDbEntity
  8
0
  6
Continuous
 62
     7
100
AcDbLine
 10
-160.3375
 20
956.64782
 30
0.0
 11
-142.12824
 21
959.50278
 31
0.0
  0
LINE
  5
D8
330
1F
100
AcDbEntity
  8
0
  6
Continuous
 62
     7
100
AcDbLine
 10
-218.3820009605
 20
977.5861822173
 30
0.0
 11
-174.40402
 21
958.45122
 31
0.0
  0
LINE
  5
D9
330
1F
100
AcDbEntity
  8
0
  6
Continuous
 62
     7
100
AcDbLine
 10
-313.23026
 20
582.30008
 30
0.0
 11
-313.49442
 21
582.29754
 31
0.0
  0
LINE
  5
DA
330
1F
100
AcDbEntity
  8
0
  6
Continuous
 62
     7
100
AcDbLine
 10
-421.26916
 20
91.7702
 30
0.0
 11
-469.6330416232
 21
102.2204562957
 31
0.0
  0
LINE
  5
DB
330
1F
100
AcDbEntity
  8
0
  6
Continuous
 62
     7
100
AcDbLine
 10
-395.70406
 20
72.15886
 30
0.0
 11
-408.82824
 21
85.05698
 31
0.0
  0
LINE
  5
DC
330
1F
100
AcDbEntity
  8
0
  6
Continuous
 62
     7
100
AcDbLine
 10
-427.81728
 20
-25.42032
 30
0.0
 11
-391.19556
 21
41.90746
 31
0.0
  0
LINE
  5
DD
330
1F
100
AcDbEntity
  8
0
  6
Continuous
 62
     7
100
AcDbLine
 10
-473.61602
 20
-34.10204
 30
0.0
 11
-455.62012
 21
-38.08476
 31
0.0
  0
LINE
  5
DE
330
1F
100
AcDbEntity
  8
0
  6
Continuous
 62
     7
100
AcDbLine
 10
-520.6260030017
 20
7.1539510904
 30
0.0
 11
-486.05694
 21
-27.29484
 31
0.0
  0
LINE
  5
DF
330
1F
100
AcDbEntity
  8
0
  6
Continuous
 62
     7
100
AcDbLine
 10
-726.29776
 20
-339.46846
 30
0.0
 11
-768.5313082347
 21
-313.3140751634
 31
0.0
  0
LINE
  5
E0
330
1F
100
AcDbEntity
  8
0
  6
Continuous
 62
     7
100
AcDbLine
 10
-708.78446
 20
-366.5118400001
 30
0.0
 11
-716.8261
 21
-349.9612
 31
0.0
  0
LINE
  5
E1
330
1F
100
AcDbEntity
  8
0
  6
Continuous
 62
     7
100
AcDbLine
 10
-771.73582
 20
-447.69024
 30
0.0
 11
-714.67218
 21
-396.52448
 31
0.0
  0
LINE
  5
E2
330
1F
100
AcDbEntity
  8
0
  6
Continuous
 62
     7
100
AcDbLine
 10
-817.79364
 20
-440.5249
 30
0.0
 11
-802.17264
 21
-450.30644
 31
0.0
  0
LINE
  5
E3
330
1F
100
AcDbEntity
  8
0
  6
Continuous
 62
     7
100
AcDbLine
 10
-848.4479001941
 20
-385.5168906105
 30
0.0
 11
-827.23482
 21
-429.94072
 31
0.0
  0
LINE
  5
E4
330
1F
100
AcDbEntity
  8
0
  6
Continuous
 62
     7
100
AcDbLine
 10
-1160.83334
 20
-640.02158
 30
0.0
 11
-1191.603372084
 21
-601.2099017902
 31
0.0
  0
LINE
  5
E5
330
1F
100
AcDbEntity
  8
0
  6
Continuous
 62
     7
100
AcDbLine
 10
-1153.5283
 20
-671.40074
 30
0.0
 11
-1155.48156
 21
-653.10512
 31
0.0
  0
LINE
  5
E6
330
1F
100
AcDbEntity
  8
0
  6
Continuous
 62
     7
100
AcDbLine
 10
-1240.282
 20
-726.41968
 30
0.0
 11
-1169.24582
 21
-697.63894
 31
0.0
  0
LINE
  5
E7
330
1F
100
AcDbEntity
  8
0
  6
Continuous
 62
     7
100
AcDbLine
 10
-1281.18108
 20
-704.05752
 30
0.0
 11
-1269.80188
 21
-718.55838
 31
0.0
  0
LINE
  5
E8
330
1F
100
AcDbEntity
  8
0
  6
Continuous
 62
     7
100
AcDbLine
 10
-1291.3393208028
 20
-642.1456889471
 30
0.0
 11
-1286.4719
 21
-690.90032
 31
0.0
  0
LINE
  5
E9
330
1F
100
AcDbEntity
  8
0
  6
Continuous
 62
     7
100
AcDbLine
 10
-1664.09116
 20
-785.42642
 30
0.0
 11
-1683.4015567385
 21
-740.4180330378
 31
0.0
  0
LINE
  5
EA
330
1F
100
AcDbEntity
  8
0
  6
Continuous
 62
     7
100
AcDbLine
 10
-1665.25956
 20
-817.62346
 30
0.0
 11
-1662.3538
 21
-799.45484
 31
0.0
  0
LINE
  5
EB
330
1F
100
AcDbEntity
  8
0
  6
Continuous
 62
     7
100
AcDbLine
 10
-1763.395
 20
-847.99932
 30
0.0
 11
-1687.30168
 21
-838.82738
 31
0.0
  0
LINE
  5
EC
330
1F
100
AcDbEntity
  8
0
  6
Continuous
 62
     7
100
AcDbLine
 10
-1797.00936
 20
-815.70322
 30
0.0
 11
-1789.82624
 21
-832.67804
 31
0.0
  0
LINE
  5
ED
330
1F
100
AcDbEntity
  8
0
  6
Continuous
 62
     7
100
AcDbLine
 10
-1790.6971834471
 20
-753.9028804528
 30
0.0
 11
-1798.67052
 21
-801.62146
 31
0.0
  0
LINE
  5
EE
330
1F
100
AcDbEntity
  8
0
  6
Continuous
 62
     7
100
AcDbLine
 10
-2178.71548
 20
-819.19826
 30
0.0
 11
-2192.0765224323
 21
-772.8595305271
 31
0.0
  0
LINE
  5
EF
330
1F
100
AcDbEntity
  8
0
  6
Continuous
 62
     7
100
AcDbLine
 10
-2183.87676
 20
-851.0016
 30
0.0
 11
-2178.73326
 21
-833.3359
 31
0.0
  0
LINE
  5
F0
330
1F
100
AcDbEntity
  8
0
  6
Continuous
 62
     7
100
AcDbLine
 10
-2285.02464
 20
-868.9467
 30
0.0
 11
-2208.38268
 21
-869.3023
 31
0.0
  0
LINE
  5
F1
330
1F
100
AcDbEntity
  8
0
  6
Continuous
 62
     7
100
AcDbLine
 10
-2314.36672
 20
-832.7263
 30
0.0
 11
-2309.34768
 21
-850.46058
 31
0.0
  0
LINE
  5
F2
330
1F
100
AcDbEntity
  8
0
  6
Continuous
 62
     7
100
AcDbLine
 10
-2300.6512307842
 20
-772.9509538918
 30
0.0
 11
-2314.26258
 21
-818.54548
 31
0.0
  0
LINE
  5
F3
330
1F
100
AcDbEntity
  8
0
  6
Continuous
 62
     7
100
AcDbLine
 10
-2694.31262
 20
-801.72306
 30
0.0
 11
-2701.9594742812
 21
-753.3901320588
 31
0.0
  0
LINE
  5
F4
330
1F
100
AcDbEntity
  8
0
  6
Continuous
 62
     7
100
AcDbLine
 10
-2703.3601
 20
-832.64502
 30
0.0
 11
-2696.07538
 21
-815.74894
 31
0.0
  0
LINE
  5
F5
330
1F
100
AcDbEntity
  8
0
  6
Continuous
 62
     7
100
AcDbLine
 10
-2805.9507
 20
-837.96378
 30
0.0
 11
-2729.93866
 21
-847.78088
 31
0.0
  0
LINE
  5
F6
330
1F
100
AcDbEntity
  8
0
  6
Continuous
 62
     7
100
AcDbLine
 10
-2830.59378
 20
-798.39566
 30
0.0
 11
-2827.80486
 21
-816.61508
 31
0.0
  0
LINE
  5
F7
330
1F
100
AcDbEntity
  8
0
  6
Continuous
 62
     7
100
AcDbLine
 10
-2809.2998713467
 20
-740.080705588
 30
0.0
 11
-2828.74212
 21
-784.33676
 31
0.0
  0
LINE
  5
F8
330
1F
100
AcDbEntity
  8
0
  6
Continuous
 62
     7
100
AcDbLine
 10
-3206.45536
 20
-690.49392
 30
0.0
 11
-3201.1719698847
 21
-641.354543465
 31
0.0
  0
LINE
  5
F9
330
1F
100
AcDbEntity
  8
0
  6
Continuous
 62
     7
100
AcDbLine
 10
-3223.26
 20
-717.9818
 30
0.0
 11
-3211.8173
 21
-703.57238
 31
0.0
  0
LINE
  5
FA
330
1F
100
AcDbEntity
  8
0
  6
Continuous
 62
     7
100
AcDbLine
 10
-3323.68398
 20
-696.341
 30
0.0
 11
-3252.86624
 21
-725.65514
 31
0.0
  0
LINE
  5
FB
330
1F
100
AcDbEntity
  8
0
  6
Continuous
 62
     7
100
AcDbLine
 10
-3337.14598
 20
-651.71574
 30
0.0
 11
-3339.20846
 21
-670.03168
 31
0.0
  0
LINE
  5
FC
330
1F
100
AcDbEntity
  8
0
  6
Continuous
 62
     7
100
AcDbLine
 10
-3301.0009118419
 20
-600.5176542482
 30
0.0
 11
-3331.69006
 21
-638.62712
 31
0.0
  0
LINE
  5
FD
330
1F
100
AcDbEntity
  8
0
  6
Continuous
 62
     7
100
AcDbLine
 10
-3667.53902
 20
-430.97704
 30
0.0
 11
-3645.2354120721
 21
-386.2867463893
 31
0.0
  0
LINE
  5
FE
330
1F
100
AcDbEntity
  8
0
  6
Continuous
 62
     7
100
AcDbLine
 10
-3692.8679
 20
-450.89064
 30
0.0
 11
-3677.12244
 21
-441.36818
 31
0.0
  0
LINE
  5
FF
330
1F
100
AcDbEntity
  8
0
  6
Continuous
 62
     7
100
AcDbLine
 10
-3779.46158
 20
-395.62024
 30
0.0
 11
-3723.29202
 21
-447.76898
 31
0.0
  0
LINE
  5
100
330
1F
100
AcDbEntity
  8
0
  6
Continuous
 62
     7
100
AcDbLine
 10
-3776.5355
 20
-349.10014
 30
0.0
 11
-3784.84892
 21
-365.54918
 31
0.0
  0
LINE
  5
101
330
1F
100
AcDbEntity
  8
0
  6
Continuous
 62
     7
100
AcDbLine
 10
-3724.4899314538
 20
-313.5054324326
 30
0.0
 11
-3766.86064
 21
-338.73186
 31
0.0
  0
LINE
  5
102
330
1F
100
AcDbEntity
  8
0
  6
Continuous
 62
     7
100
AcDbLine
 10
-4005.29552
 20
-26.29154
 30
0.0
 11
-3970.2262470247
 21
8.5465069996
 31
0.0
  0
LINE
  5
103
330
1F
100
AcDbEntity
  8
0
  6
Continuous
 62
     7
100
AcDbLine
 10
-4035.6662999999
 20
-37.05098
 30
0.0
 11
-4017.70088
 21
-33.0708
 31
0.0
  0
LINE
  5
104
330
1F
100
AcDbEntity
  8
0
  6
Continuous
 62
     7
100
AcDbLine
 10
-4100.0172
 20
43.02252
 30
0.0
 11
-4063.492
 21
-24.3586
 31
0.0
  0
LINE
  5
105
330
1F
100
AcDbEntity
  8
0
  6
Continuous
 62
     7
100
AcDbLine
 10
-4082.35658
 20
86.15934
 30
0.0
 11
-4095.49854
 21
73.23582
 31
0.0
  0
LINE
  5
106
330
1F
100
AcDbEntity
  8
0
  6
Continuous
 62
     7
100
AcDbLine
 10
-4022.2430183217
 20
103.1011353725
 30
0.0
 11
-4069.87248
 21
92.8878
 31
0.0
  0
LINE
  5
107
330
1F
100
AcDbEntity
  8
0
  6
Continuous
 62
     7
100
AcDbLine
 10
-4318.889
 20
959.25132
 30
0.0
 11
-4274.1264812106
 21
977.9862961994
 31
0.0
  0
LINE
  5
108
330
1F
100
AcDbEntity
  8
0
  6
Continuous
 62
     7
100
AcDbLine
 10
-4351.07588
 20
960.70674
 30
0.0
 11
-4332.93266
 21
957.63842
 31
0.0
  0
LINE
  5
109
330
1F
100
AcDbEntity
  8
0
  6
Continuous
 62
     7
100
AcDbLine
 10
-4380.5729
 20
1059.10888
 30
0.0
 11
-4372.08168
 21
982.93682
 31
0.0
  0
LINE
  5
10A
330
1F
100
AcDbEntity
  8
0
  6
Continuous
 62
     7
100
AcDbLine
 10
-4347.97962
 20
1092.43368
 30
0.0
 11
-4365.01794
 21
1085.40296
 31
0.0
  0
LINE
  5
10B
330
1F
100
AcDbEntity
  8
0
  6
Continuous
 62
     7
100
AcDbLine
 10
-4286.7255466595
 20
1085.656693718
 30
0.0
 11
-4333.88262
 21
1093.96784
 31
0.0
  0
LINE
  5
10C
330
1F
100
AcDbEntity
  8
0
  6
Continuous
 62
     7
100
AcDbLine
 10
-4360.18178
 20
1470.45934
 30
0.0
 11
-4314.4954095163
 21
1485.5728560547
 31
0.0
  0
LINE
  5
10D
330
1F
100
AcDbEntity
  8
0
  6
Continuous
 62
     7
100
AcDbLine
 10
-4392.16038
 20
1474.38618
 30
0.0
 11
-4374.30672
 21
1469.93102
 31
0.0
  0
LINE
  5
10E
330
1F
100
AcDbEntity
  8
0
  6
Continuous
 62
     7
100
AcDbLine
 10
-4414.00692
 20
1574.76444
 30
0.0
 11
-4411.3958
 21
1498.16566
 31
0.0
  0
LINE
  5
10F
330
1F
100
AcDbEntity
  8
0
  6
Continuous
 62
     7
100
AcDbLine
 10
-4396.43774
 20
1599.79868
 30
0.0
 11
-4396.47838
 21
1599.78344
 31
0.0
  0
LINE
  5
110
330
1F
100
AcDbEntity
  8
0
  6
Continuous
 62
     7
100
AcDbLine
 10
-4396.43774
 20
1599.79868
 30
0.0
 11
-4378.92952
 21
1605.4578
 31
0.0
  0
LINE
  5
111
330
1F
100
AcDbEntity
  8
0
  6
Continuous
 62
     7
100
AcDbLine
 10
-4364.7995
 20
1605.89214
 30
0.0
 11
-4318.8942310791
 21
1594.0258118335
 31
0.0
  0
LINE
  5
112
330
1F
100
AcDbEntity
  8
0
  6
Continuous
 62
     7
100
AcDbLine
 10
-4180.83492
 20
582.06132
 30
0.0
 11
-4154.92184
 21
488.3277
 31
0.0
  0
LINE
  5
113
330
1F
100
AcDbEntity
  8
0
  6
Continuous
 62
     7
100
AcDbLine
 10
-4299.47578
 20
1589.00622
 30
0.0
 11
-4299.4727827165
 21
1589.0054452142
 31
0.0
  0
LINE
  5
114
330
1F
100
AcDbEntity
  8
0
  6
Continuous
 62
     7
100
AcDbLine
 10
-3954.672803963
 20
781.840534216
 30
0.0
 11
-3950.5128589848
 21
774.1390525987
 31
0.0
  0
LINE
  5
115
330
1F
100
AcDbEntity
  8
0
  6
Continuous
 62
     7
100
AcDbLine
 10
-3950.5128589848
 20
774.1390525987
 30
0.0
 11
-3912.8284423707
 21
712.1181941296
 31
0.0
  0
LINE
  5
116
330
1F
100
AcDbEntity
  8
0
  6
Continuous
 62
     7
100
AcDbLine
 10
-3912.8284423707
 20
712.1181941296
 30
0.0
 11
-3872.0513715737
 21
652.040587054
 31
0.0
  0
LINE
  5
117
330
1F
100
AcDbEntity
  8
0
  6
Continuous
 62
     7
100
AcDbLine
 10
-3872.0513715737
 20
652.040587054
 30
0.0
 11
-3837.9377869058
 21
606.3259178196
 31
0.0
  0
LINE
  5
118
330
1F
100
AcDbEntity
  8
0
  6
Continuous
 62
     7
100
AcDbLine
 10
-3837.9377869058
 20
606.3259178196
 30
0.0
 11
-3802.0759575933
 21
562.0239950571
 31
0.0
  0
LINE
  5
119
330
1F
100
AcDbEntity
  8
0
  6
Continuous
 62
     7
100
AcDbLine
 10
-3802.0759575933
 20
562.0239950571
 30
0.0
 11
-3764.5367218533
 21
519.2285766824
 31
0.0
  0
LINE
  5
11A
330
1F
100
AcDbEntity
  8
0
  6
Continuous
 62
     7
100
AcDbLine
 10
-3764.5367218533
 20
519.2285766824
 30
0.0
 11
-3725.390917903
 21
478.0334206115
 31
0.0
  0
LINE
  5
11B
330
1F
100
AcDbEntity
  8
0
  6
Continuous
 62
     7
100
AcDbLine
 10
-3725.3894805908
 20
478.0334206115
 30
0.0
 11
-3679.622891657
 21
435.1175232408
 31
0.0
  0
LINE
  5
11C
330
1F
100
AcDbEntity
  8
0
  6
Continuous
 62
     7
100
AcDbLine
 10
-3679.622891657
 20
435.1175232408
 30
0.0
 11
-3632.133140495
 21
394.2535924255
 31
0.0
  0
LINE
  5
11D
330
1F
100
AcDbEntity
  8
0
  6
Continuous
 62
     7
100
AcDbLine
 10
-3632.133140495
 20
394.2535924255
 30
0.0
 11
-3583.0471737044
 21
355.3910014433
 31
0.0
  0
LINE
  5
11E
330
1F
100
AcDbEntity
  8
0
  6
Continuous
 62
     7
100
AcDbLine
 10
-3583.0471737044
 20
355.3910014433
 30
0.0
 11
-3532.4905005727
 21
318.4791235717
 31
0.0
  0
LINE
  5
11F
330
1F
100
AcDbEntity
  8
0
  6
Continuous
 62
     7
100
AcDbLine
 10
-3532.4905005727
 20
318.4791235717
 30
0.0
 11
-3480.5886303874
 21
283.4673320883
 31
0.0
  0
LINE
  5
120
330
1F
100
AcDbEntity
  8
0
  6
Continuous
 62
     7
100
AcDbLine
 10
-3480.5886303874
 20
283.4673320883
 30
0.0
 11
-3410.7970800491
 21
240.4073898738
 31
0.0
  0
LINE
  5
121
330
1F
100
AcDbEntity
  8
0
  6
Continuous
 62
     7
100
AcDbLine
 10
-3410.7970800491
 20
240.4073898738
 30
0.0
 11
-3339.1957936811
 21
200.4053089807
 31
0.0
  0
LINE
  5
122
330
1F
100
AcDbEntity
  8
0
  6
Continuous
 62
     7
100
AcDbLine
 10
-3339.1957936811
 20
200.4053089807
 30
0.0
 11
-3266.06662
 21
163.3474
 31
0.0
  0
LINE
  5
123
330
1F
100
AcDbEntity
  8
0
  6
Continuous
 62
     7
100
AcDbLine
 10
-3266.06662
 20
163.3474
 30
0.0
 11
-3190.6399520576
 21
127.912462935
 31
0.0
  0
LINE
  5
124
330
1F
100
AcDbEntity
  8
0
  6
Continuous
 62
     7
100
AcDbLine
 10
-3190.6399520576
 20
127.912462935
 30
0.0
 11
-3113.9957032128
 21
95.3979331763
 31
0.0
  0
LINE
  5
125
330
1F
100
AcDbEntity
  8
0
  6
Continuous
 62
     7
100
AcDbLine
 10
-3113.9957032128
 20
95.3979331763
 30
0.0
 11
-3036.2321507392
 21
65.8047704781
 31
0.0
  0
LINE
  5
126
330
1F
100
AcDbEntity
  8
0
  6
Continuous
 62
     7
100
AcDbLine
 10
-3036.2321507392
 20
65.8047704781
 30
0.0
 11
-2957.4475719104
 21
39.1339345946
 31
0.0
  0
LINE
  5
127
330
1F
100
AcDbEntity
  8
0
  6
Continuous
 62
     7
100
AcDbLine
 10
-2957.4475719104
 20
39.1339345946
 30
0.0
 11
-2877.740244
 21
15.38638528
 31
0.0
  0
LINE
  5
128
330
1F
100
AcDbEntity
  8
0
  6
Continuous
 62
     7
100
AcDbLine
 10
-2877.740244
 20
15.38638528
 30
0.0
 11
-2797.2084442816
 21
-5.4369177114
 31
0.0
  0
LINE
  5
129
330
1F
100
AcDbEntity
  8
0
  6
Continuous
 62
     7
100
AcDbLine
 10
-2797.2084442816
 20
-5.4369177114
 30
0.0
 11
-2715.9504500288
 21
-23.3350146253
 31
0.0
  0
LINE
  5
12A
330
1F
100
AcDbEntity
  8
0
  6
Continuous
 62
     7
100
AcDbLine
 10
-2715.9504500288
 20
-23.3350146253
 30
0.0
 11
-2625.8451955895
 21
-39.6431627445
 31
0.0
  0
LINE
  5
12B
330
1F
100
AcDbEntity
  8
0
  6
Continuous
 62
     7
100
AcDbLine
 10
-2625.8451955895
 20
-39.6431627445
 30
0.0
 11
-2535.1109683159
 21
-52.4093727744
 31
0.0
  0
LINE
  5
12C
330
1F
100
AcDbEntity
  8
0
  6
Continuous
 62
     7
100
AcDbLine
 10
-2535.1109683159
 20
-52.4093727744
 30
0.0
 11
-2443.8785752589
 21
-61.6323672823
 31
0.0
  0
LINE
  5
12D
330
1F
100
AcDbEntity
  8
0
  6
Continuous
 62
     7
100
AcDbLine
 10
-2443.8785752589
 20
-61.6323672823
 30
0.0
 11
-2352.2788234699
 21
-67.3108688351
 31
0.0
  0
LINE
  5
12E
330
1F
100
AcDbEntity
  8
0
  6
Continuous
 62
     7
100
AcDbLine
 10
-2352.2788234699
 20
-67.3108688351
 30
0.0
 11
-2260.44252
 21
-69.4436
 31
0.0
  0
LINE
  5
12F
330
1F
100
AcDbEntity
  8
0
  6
Continuous
 62
     7
100
AcDbLine
 10
-516.7683562448
 20
875.1433404504
 30
0.0
 11
-548.2840964334
 21
812.979334158
 31
0.0
  0
LINE
  5
130
330
1F
100
AcDbEntity
  8
0
  6
Continuous
 62
     7
100
AcDbLine
 10
-548.2840964334
 20
812.979334158
 30
0.0
 11
-583.1716691181
 21
752.3842489839
 31
0.0
  0
LINE
  5
131
330
1F
100
AcDbEntity
  8
0
  6
Continuous
 62
     7
100
AcDbLine
 10
-583.1716691181
 20
752.3842489839
 30
0.0
 11
-621.2425642836
 21
693.4947122025
 31
0.0
  0
LINE
  5
132
330
1F
100
AcDbEntity
  8
0
  6
Continuous
 62
     7
100
AcDbLine
 10
-621.2425642836
 20
693.4947122025
 30
0.0
 11
-662.3082719148
 21
636.447351088
 31
0.0
  0
LINE
  5
133
330
1F
100
AcDbEntity
  8
0
  6
Continuous
 62
     7
100
AcDbLine
 10
-662.3082719148
 20
636.447351088
 30
0.0
 11
-706.1802819966
 21
581.3787929148
 31
0.0
  0
LINE
  5
134
330
1F
100
AcDbEntity
  8
0
  6
Continuous
 62
     7
100
AcDbLine
 10
-706.1802819966
 20
581.3787929148
 30
0.0
 11
-751.8180459063
 21
529.3519144361
 31
0.0
  0
LINE
  5
135
330
1F
100
AcDbEntity
  8
0
  6
Continuous
 62
     7
100
AcDbLine
 10
-751.8180459063
 20
529.3519144361
 30
0.0
 11
-799.8023538939
 21
479.4950275373
 31
0.0
  0
LINE
  5
136
330
1F
100
AcDbEntity
  8
0
  6
Continuous
 62
     7
100
AcDbLine
 10
-799.8023538939
 20
479.4950275373
 30
0.0
 11
-849.9546154337
 21
431.9375700985
 31
0.0
  0
LINE
  5
137
330
1F
100
AcDbEntity
  8
0
  6
Continuous
 62
     7
100
AcDbLine
 10
-849.9546154337
 20
431.9375700985
 30
0.0
 11
-902.09624
 21
386.80898
 31
0.0
  0
LINE
  5
138
330
1F
100
AcDbEntity
  8
0
  6
Continuous
 62
     7
100
AcDbLine
 10
-902.09624
 20
386.80898
 30
0.0
 11
-953.7958023902
 21
345.9112434922
 31
0.0
  0
LINE
  5
139
330
1F
100
AcDbEntity
  8
0
  6
Continuous
 62
     7
100
AcDbLine
 10
-953.7958023902
 20
345.9112434922
 30
0.0
 11
-1007.0460872602
 21
307.285969132
 31
0.0
  0
LINE
  5
13A
330
1F
100
AcDbEntity
  8
0
  6
Continuous
 62
     7
100
AcDbLine
 10
-1007.0460872602
 20
307.285969132
 30
0.0
 11
-1061.733571159
 21
270.8539556646
 31
0.0
  0
LINE
  5
13B
330
1F
100
AcDbEntity
  8
0
  6
Continuous
 62
     7
100
AcDbLine
 10
-1061.733571159
 20
270.8539556646
 30
0.0
 11
-1117.7447306359
 21
236.536001835
 31
0.0
  0
LINE
  5
13C
330
1F
100
AcDbEntity
  8
0
  6
Continuous
 62
     7
100
AcDbLine
 10
-1117.7447306359
 20
236.536001835
 30
0.0
 11
-1174.96604224
 21
204.2529063881
 31
0.0
  0
LINE
  5
13D
330
1F
100
AcDbEntity
  8
0
  6
Continuous
 62
     7
100
AcDbLine
 10
-1174.96604224
 20
204.2529063881
 30
0.0
 11
-1233.2839825203
 21
173.9254680691
 31
0.0
  0
LINE
  5
13E
330
1F
100
AcDbEntity
  8
0
  6
Continuous
 62
     7
100
AcDbLine
 10
-1233.2839825203
 20
173.9254680691
 30
0.0
 11
-1303.2692771088
 21
140.5853594282
 31
0.0
  0
LINE
  5
13F
330
1F
100
AcDbEntity
  8
0
  6
Continuous
 62
     7
100
AcDbLine
 10
-1303.2692771088
 20
140.5853594282
 30
0.0
 11
-1374.434288911
 21
109.7220472966
 31
0.0
  0
LINE
  5
140
330
1F
100
AcDbEntity
  8
0
  6
Continuous
 62
     7
100
AcDbLine
 10
-1374.434288911
 20
109.7220472966
 30
0.0
 11
-1446.5931718879
 21
81.2058735341
 31
0.0
  0
LINE
  5
141
330
1F
100
AcDbEntity
  8
0
  6
Continuous
 62
     7
100
AcDbLine
 10
-1446.5931718879
 20
81.2058735341
 30
0.0
 11
-1519.56008
 21
54.90718
 31
0.0
  0
LINE
  5
142
330
1F
100
AcDbEntity
  8
0
  6
Continuous
 62
     7
100
AcDbLine
 10
-1519.56008
 20
54.90718
 30
0.0
 11
-1600.2355037907
 21
28.5497535334
 31
0.0
  0
LINE
  5
143
330
1F
100
AcDbEntity
  8
0
  6
Continuous
 62
     7
100
AcDbLine
 10
-1600.2355037907
 20
28.5497535334
 30
0.0
 11
-1681.6075806305
 21
4.888449826
 31
0.0
  0
LINE
  5
144
330
1F
100
AcDbEntity
  8
0
  6
Continuous
 62
     7
100
AcDbLine
 10
-1681.6075806305
 20
4.888449826
 30
0.0
 11
-1763.6262513614
 21
-15.8864720634
 31
0.0
  0
LINE
  5
145
330
1F
100
AcDbEntity
  8
0
  6
Continuous
 62
     7
100
AcDbLine
 10
-1763.6262513614
 20
-15.8864720634
 30
0.0
 11
-1846.2414568252
 21
-33.5847530759
 31
0.0
  0
LINE
  5
146
330
1F
100
AcDbEntity
  8
0
  6
Continuous
 62
     7
100
AcDbLine
 10
-1846.2414568252
 20
-33.5847530759
 30
0.0
 11
-1929.4031378637
 21
-48.016134153
 31
0.0
  0
LINE
  5
147
330
1F
100
AcDbEntity
  8
0
  6
Continuous
 62
     7
100
AcDbLine
 10
-1929.4031378637
 20
-48.016134153
 30
0.0
 11
-1995.0952184231
 21
-56.9393073157
 31
0.0
  0
LINE
  5
148
330
1F
100
AcDbEntity
  8
0
  6
Continuous
 62
     7
100
AcDbLine
 10
-1995.0952184231
 20
-56.9393073157
 30
0.0
 11
-2061.0694785271
 21
-63.6359272191
 31
0.0
  0
LINE
  5
149
330
1F
100
AcDbEntity
  8
0
  6
Continuous
 62
     7
100
AcDbLine
 10
-2061.0694785271
 20
-63.6359272191
 30
0.0
 11
-2127.301636565
 21
-68.0137071258
 31
0.0
  0
LINE
  5
14A
330
1F
100
AcDbEntity
  8
0
  6
Continuous
 62
     7
100
AcDbLine
 10
-2127.301636565
 20
-68.0137071258
 30
0.0
 11
-2193.7674109261
 21
-69.9803602986
 31
0.0
  0
LINE
  5
14B
330
1F
100
AcDbEntity
  8
0
  6
Continuous
 62
     7
100
AcDbLine
 10
-2193.7674109261
 20
-69.9803602986
 30
0.0
 11
-2260.44252
 21
-69.4436
 31
0.0
  0
LINE
  5
14C
330
1F
100
AcDbEntity
  8
0
  6
Continuous
 62
     7
100
AcDbLine
 10
-191.2378802291
 20
1608.7064555483
 30
0.0
 11
-190.6800695002
 21
1628.7880108147
 31
0.0
  0
LINE
  5
14D
330
1F
100
AcDbEntity
  8
0
  6
Continuous
 62
     7
100
AcDbLine
 10
-190.6800695002
 20
1628.7880108147
 30
0.0
 11
-189.91326
 21
1660.0906600001
 31
0.0
  0
LINE
  5
14E
330
1F
100
AcDbEntity
  8
0
  6
Continuous
 62
     7
100
AcDbLine
 10
-111.8235
 20
1604.98028
 30
0.0
 11
-119.708602848
 21
1606.2484690816
 31
0.0
  0
LINE
  5
14F
330
1F
100
AcDbEntity
  8
0
  6
Continuous
 62
     7
100
AcDbLine
 10
-119.708602848
 20
1606.2484690816
 30
0.0
 11
-125.95098
 21
1605.48066
 31
0.0
  0
LINE
  5
150
330
1F
100
AcDbEntity
  8
0
  6
Continuous
 62
     7
100
AcDbLine
 10
-131.23164
 20
1470.03516
 30
0.0
 11
-123.3312139213
 21
1468.7110239437
 31
0.0
  0
LINE
  5
151
330
1F
100
AcDbEntity
  8
0
  6
Continuous
 62
     7
100
AcDbLine
 10
-123.3312139213
 20
1468.7110239437
 30
0.0
 11
-117.06352
 21
1469.44842
 31
0.0
  0
LINE
  5
152
330
1F
100
AcDbEntity
  8
0
  6
Continuous
 62
     7
100
AcDbLine
 10
-222.7508946464
 20
1101.4585708432
 30
0.0
 11
-213.410113184
 21
1196.5373771008
 31
0.0
  0
LINE
  5
153
330
1F
100
AcDbEntity
  8
0
  6
Continuous
 62
     7
100
AcDbLine
 10
-213.410113184
 20
1196.5373771008
 30
0.0
 11
-204.6763496
 21
1311.2213413824
 31
0.0
  0
LINE
  5
154
330
1F
100
AcDbEntity
  8
0
  6
Continuous
 62
     7
100
AcDbLine
 10
-204.6763496
 20
1311.2213413824
 30
0.0
 11
-199.347174584
 21
1401.3883415408
 31
0.0
  0
LINE
  5
155
330
1F
100
AcDbEntity
  8
0
  6
Continuous
 62
     7
100
AcDbLine
 10
-199.347174584
 20
1401.3883415408
 30
0.0
 11
-196.0990626282
 21
1471.6689399546
 31
0.0
  0
LINE
  5
156
330
1F
100
AcDbEntity
  8
0
  6
Continuous
 62
     7
100
AcDbLine
 10
-143.4592
 20
1091.22718
 30
0.0
 11
-151.2047847526
 21
1093.1693431667
 31
0.0
  0
LINE
  5
157
330
1F
100
AcDbEntity
  8
0
  6
Continuous
 62
     7
100
AcDbLine
 10
-151.2047847526
 20
1093.1693431667
 30
0.0
 11
-157.49016
 21
1092.94168
 31
0.0
  0
LINE
  5
158
330
1F
100
AcDbEntity
  8
0
  6
Continuous
 62
     7
100
AcDbLine
 10
-174.40402
 20
958.45122
 30
0.0
 11
-166.6442294541
 21
956.4534899238
 31
0.0
  0
LINE
  5
159
330
1F
100
AcDbEntity
  8
0
  6
Continuous
 62
     7
100
AcDbLine
 10
-166.6442294541
 20
956.4534899238
 30
0.0
 11
-160.3375
 21
956.64782
 31
0.0
  0
LINE
  5
15A
330
1F
100
AcDbEntity
  8
0
  6
Continuous
 62
     7
100
AcDbLine
 10
-313.49442
 20
582.29754
 30
0.0
 11
-295.3007452835
 21
656.7620166029
 31
0.0
  0
LINE
  5
15B
330
1F
100
AcDbEntity
  8
0
  6
Continuous
 62
     7
100
AcDbLine
 10
-295.3007452835
 20
656.7620166029
 30
0.0
 11
-278.9695249664
 21
731.6362779217
 31
0.0
  0
LINE
  5
15C
330
1F
100
AcDbEntity
  8
0
  6
Continuous
 62
     7
100
AcDbLine
 10
-278.9695249664
 20
731.6362779217
 30
0.0
 11
-264.3962807974
 21
806.8766096218
 31
0.0
  0
LINE
  5
15D
330
1F
100
AcDbEntity
  8
0
  6
Continuous
 62
     7
100
AcDbLine
 10
-264.3962807974
 20
806.8766096218
 30
0.0
 11
-249.3354499997
 21
895.9632153547
 31
0.0
  0
LINE
  5
15E
330
1F
100
AcDbEntity
  8
0
  6
Continuous
 62
     7
100
AcDbLine
 10
-249.3354499997
 20
895.9632153547
 30
0.0
 11
-239.2122283489
 21
965.9782210985
 31
0.0
  0
LINE
  5
15F
330
1F
100
AcDbEntity
  8
0
  6
Continuous
 62
     7
100
AcDbLine
 10
-480.0035762808
 20
123.3402260267
 30
0.0
 11
-451.5281796749
 21
183.0348580698
 31
0.0
  0
LINE
  5
160
330
1F
100
AcDbEntity
  8
0
  6
Continuous
 62
     7
100
AcDbLine
 10
-451.5281796749
 20
183.0348580698
 30
0.0
 11
-418.109998871
 21
261.3799058701
 31
0.0
  0
LINE
  5
161
330
1F
100
AcDbEntity
  8
0
  6
Continuous
 62
     7
100
AcDbLine
 10
-418.109998871
 20
261.3799058701
 30
0.0
 11
-393.9897974189
 21
323.8008127578
 31
0.0
  0
LINE
  5
162
330
1F
100
AcDbEntity
  8
0
  6
Continuous
 62
     7
100
AcDbLine
 10
-393.9897974189
 20
323.8008127578
 30
0.0
 11
-371.65026
 21
386.80898
 31
0.0
  0
LINE
  5
163
330
1F
100
AcDbEntity
  8
0
  6
Continuous
 62
     7
100
AcDbLine
 10
-371.65026
 20
386.80898
 30
0.0
 11
-353.0758143245
 21
443.6505942515
 31
0.0
  0
LINE
  5
164
330
1F
100
AcDbEntity
  8
0
  6
Continuous
 62
     7
100
AcDbLine
 10
-353.0758143245
 20
443.6505942515
 30
0.0
 11
-339.40242
 21
488.54106
 31
0.0
  0
LINE
  5
165
330
1F
100
AcDbEntity
  8
0
  6
Continuous
 62
     7
100
AcDbLine
 10
-408.82824
 20
85.05698
 30
0.0
 11
-415.3322971366
 21
89.6905788608
 31
0.0
  0
LINE
  5
166
330
1F
100
AcDbEntity
  8
0
  6
Continuous
 62
     7
100
AcDbLine
 10
-415.3322971366
 20
89.6905788608
 30
0.0
 11
-421.26916
 21
91.7702
 31
0.0
  0
LINE
  5
167
330
1F
100
AcDbEntity
  8
0
  6
Continuous
 62
     7
100
AcDbLine
 10
-486.05694
 20
-27.29484
 30
0.0
 11
-479.5603931354
 21
-31.9840717696
 31
0.0
  0
LINE
  5
168
330
1F
100
AcDbEntity
  8
0
  6
Continuous
 62
     7
100
AcDbLine
 10
-479.5603931354
 20
-31.9840717696
 30
0.0
 11
-473.61602
 21
-34.10204
 31
0.0
  0
LINE
  5
169
330
1F
100
AcDbEntity
  8
0
  6
Continuous
 62
     7
100
AcDbLine
 10
-771.2379658546
 20
-289.9523382943
 30
0.0
 11
-751.7794972813
 21
-270.5029808218
 31
0.0
  0
LINE
  5
16A
330
1F
100
AcDbEntity
  8
0
  6
Continuous
 62
     7
100
AcDbLine
 10
-751.7794972813
 20
-270.5029808218
 30
0.0
 11
-720.0463654822
 21
-236.6341814221
 31
0.0
  0
LINE
  5
16B
330
1F
100
AcDbEntity
  8
0
  6
Continuous
 62
     7
100
AcDbLine
 10
-720.0463654822
 20
-236.6341814221
 30
0.0
 11
-672.55898
 21
-181.40934
 31
0.0
  0
LINE
  5
16C
330
1F
100
AcDbEntity
  8
0
  6
Continuous
 62
     7
100
AcDbLine
 10
-672.55898
 20
-181.40934
 30
0.0
 11
-630.5112679462
 21
-127.1523551334
 31
0.0
  0
LINE
  5
16D
330
1F
100
AcDbEntity
  8
0
  6
Continuous
 62
     7
100
AcDbLine
 10
-630.5112679462
 20
-127.1523551334
 30
0.0
 11
-591.0967391859
 21
-70.9849072755
 31
0.0
  0
LINE
  5
16E
330
1F
100
AcDbEntity
  8
0
  6
Continuous
 62
     7
100
AcDbLine
 10
-591.0967391859
 20
-70.9849072755
 30
0.0
 11
-561.9107137582
 21
-25.6259816054
 31
0.0
  0
LINE
  5
16F
330
1F
100
AcDbEntity
  8
0
  6
Continuous
 62
     7
100
AcDbLine
 10
-561.9107137582
 20
-25.6259816054
 30
0.0
 11
-544.0934365202
 21
4.2180193016
 31
0.0
  0
LINE
  5
170
330
1F
100
AcDbEntity
  8
0
  6
Continuous
 62
     7
100
AcDbLine
 10
-716.8261
 20
-349.9612
 30
0.0
 11
-721.401733216
 21
-343.4172269056
 31
0.0
  0
LINE
  5
171
330
1F
100
AcDbEntity
  8
0
  6
Continuous
 62
     7
100
AcDbLine
 10
-721.401733216
 20
-343.4172269056
 30
0.0
 11
-726.29776
 21
-339.46846
 31
0.0
  0
LINE
  5
172
330
1F
100
AcDbEntity
  8
0
  6
Continuous
 62
     7
100
AcDbLine
 10
-827.23482
 20
-429.94072
 30
0.0
 11
-822.685643424
 21
-436.5369509325
 31
0.0
  0
LINE
  5
173
330
1F
100
AcDbEntity
  8
0
  6
Continuous
 62
     7
100
AcDbLine
 10
-822.685643424
 20
-436.5369509325
 30
0.0
 11
-817.79364
 21
-440.5249
 31
0.0
  0
LINE
  5
174
330
1F
100
AcDbEntity
  8
0
  6
Continuous
 62
     7
100
AcDbLine
 10
-1186.1694607723
 20
-578.2876838979
 30
0.0
 11
-1164.3363917696
 21
-568.1438762982
 31
0.0
  0
LINE
  5
175
330
1F
100
AcDbEntity
  8
0
  6
Continuous
 62
     7
100
AcDbLine
 10
-1164.3363917696
 20
-568.1438762982
 30
0.0
 11
-1133.98808
 21
-553.0723
 31
0.0
  0
LINE
  5
176
330
1F
100
AcDbEntity
  8
0
  6
Continuous
 62
     7
100
AcDbLine
 10
-1133.98808
 20
-553.0723
 30
0.0
 11
-1079.1981644201
 21
-523.5531975666
 31
0.0
  0
LINE
  5
177
330
1F
100
AcDbEntity
  8
0
  6
Continuous
 62
     7
100
AcDbLine
 10
-1079.1981644201
 20
-523.5531975666
 30
0.0
 11
-1025.6636588273
 21
-491.6780100263
 31
0.0
  0
LINE
  5
178
330
1F
100
AcDbEntity
  8
0
  6
Continuous
 62
     7
100
AcDbLine
 10
-1025.6636588273
 20
-491.6780100263
 30
0.0
 11
-973.4982601421
 21
-457.5227666189
 31
0.0
  0
LINE
  5
179
330
1F
100
AcDbEntity
  8
0
  6
Continuous
 62
     7
100
AcDbLine
 10
-973.4982601421
 20
-457.5227666189
 30
0.0
 11
-913.9299251058
 21
-414.4446508754
 31
0.0
  0
LINE
  5
17A
330
1F
100
AcDbEntity
  8
0
  6
Continuous
 62
     7
100
AcDbLine
 10
-913.9299251058
 20
-414.4446508754
 30
0.0
 11
-871.3737937562
 21
-380.2831338167
 31
0.0
  0
LINE
  5
17B
330
1F
100
AcDbEntity
  8
0
  6
Continuous
 62
     7
100
AcDbLine
 10
-1155.48156
 20
-653.10512
 30
0.0
 11
-1157.567410601
 21
-645.3959896525
 31
0.0
  0
LINE
  5
17C
330
1F
100
AcDbEntity
  8
0
  6
Continuous
 62
     7
100
AcDbLine
 10
-1157.567410601
 20
-645.3959896525
 30
0.0
 11
-1160.83334
 21
-640.02158
 31
0.0
  0
LINE
  5
17D
330
1F
100
AcDbEntity
  8
0
  6
Continuous
 62
     7
100
AcDbLine
 10
-1286.4719
 20
-690.90032
 30
0.0
 11
-1284.4287487091
 21
-698.6479211469
 31
0.0
  0
LINE
  5
17E
330
1F
100
AcDbEntity
  8
0
  6
Continuous
 62
     7
100
AcDbLine
 10
-1284.4287487091
 20
-698.6479211469
 30
0.0
 11
-1281.18108
 21
-704.05752
 31
0.0
  0
LINE
  5
17F
330
1F
100
AcDbEntity
  8
0
  6
Continuous
 62
     7
100
AcDbLine
 10
-1671.9569071839
 20
-719.6874611441
 30
0.0
 11
-1633.7226033331
 21
-713.6484881485
 31
0.0
  0
LINE
  5
180
330
1F
100
AcDbEntity
  8
0
  6
Continuous
 62
     7
100
AcDbLine
 10
-1633.7226033331
 20
-713.6484881485
 30
0.0
 11
-1588.85636
 21
-705.4723
 31
0.0
  0
LINE
  5
181
330
1F
100
AcDbEntity
  8
0
  6
Continuous
 62
     7
100
AcDbLine
 10
-1588.85636
 20
-705.4723
 30
0.0
 11
-1532.7912771916
 21
-693.8079894237
 31
0.0
  0
LINE
  5
182
330
1F
100
AcDbEntity
  8
0
  6
Continuous
 62
     7
100
AcDbLine
 10
-1532.7912771916
 20
-693.8079894237
 30
0.0
 11
-1477.0292705247
 21
-680.5117973846
 31
0.0
  0
LINE
  5
183
330
1F
100
AcDbEntity
  8
0
  6
Continuous
 62
     7
100
AcDbLine
 10
-1477.0292705247
 20
-680.5117973846
 30
0.0
 11
-1421.6615354368
 21
-665.523158217
 31
0.0
  0
LINE
  5
184
330
1F
100
AcDbEntity
  8
0
  6
Continuous
 62
     7
100
AcDbLine
 10
-1421.6615354368
 20
-665.523158217
 30
0.0
 11
-1357.0369167056
 21
-645.6028284971
 31
0.0
  0
LINE
  5
185
330
1F
100
AcDbEntity
  8
0
  6
Continuous
 62
     7
100
AcDbLine
 10
-1357.0369167056
 20
-645.6028284971
 30
0.0
 11
-1311.2448934427
 21
-629.4865356981
 31
0.0
  0
LINE
  5
186
330
1F
100
AcDbEntity
  8
0
  6
Continuous
 62
     7
100
AcDbLine
 10
-1662.3538
 20
-799.45484
 30
0.0
 11
-1662.3467062067
 21
-791.4685464781
 31
0.0
  0
LINE
  5
187
330
1F
100
AcDbEntity
  8
0
  6
Continuous
 62
     7
100
AcDbLine
 10
-1662.3467062067
 20
-791.4685464781
 30
0.0
 11
-1664.09116
 21
-785.42642
 31
0.0
  0
LINE
  5
188
330
1F
100
AcDbEntity
  8
0
  6
Continuous
 62
     7
100
AcDbLine
 10
-1798.67052
 20
-801.62146
 30
0.0
 11
-1798.7277960653
 21
-809.6322165261
 31
0.0
  0
LINE
  5
189
330
1F
100
AcDbEntity
  8
0
  6
Continuous
 62
     7
100
AcDbLine
 10
-1798.7277960653
 20
-809.6322165261
 30
0.0
 11
-1797.00936
 21
-815.70322
 31
0.0
  0
LINE
  5
18A
330
1F
100
AcDbEntity
  8
0
  6
Continuous
 62
     7
100
AcDbLine
 10
-2177.8626754511
 20
-753.7051345834
 30
0.0
 11
-2082.2812705523
 21
-752.4370058266
 31
0.0
  0
LINE
  5
18B
330
1F
100
AcDbEntity
  8
0
  6
Continuous
 62
     7
100
AcDbLine
 10
-2082.2812705523
 20
-752.4370058266
 30
0.0
 11
-1967.3061432666
 21
-748.3713894925
 31
0.0
  0
LINE
  5
18C
330
1F
100
AcDbEntity
  8
0
  6
Continuous
 62
     7
100
AcDbLine
 10
-1967.3061432666
 20
-748.3713894925
 30
0.0
 11
-1877.2444451683
 21
-742.8268985546
 31
0.0
  0
LINE
  5
18D
330
1F
100
AcDbEntity
  8
0
  6
Continuous
 62
     7
100
AcDbLine
 10
-1877.2444451683
 20
-742.8268985546
 30
0.0
 11
-1806.8364331574
 21
-736.4911550638
 31
0.0
  0
LINE
  5
18E
330
1F
100
AcDbEntity
  8
0
  6
Continuous
 62
     7
100
AcDbLine
 10
-2178.731918335
 20
-833.3359
 30
0.0
 11
-2177.7348011994
 21
-825.4114615334
 31
0.0
  0
LINE
  5
18F
330
1F
100
AcDbEntity
  8
0
  6
Continuous
 62
     7
100
AcDbLine
 10
-2177.7348011994
 20
-825.4114615334
 30
0.0
 11
-2178.71548
 21
-819.19826
 31
0.0
  0
LINE
  5
190
330
1F
100
AcDbEntity
  8
0
  6
Continuous
 62
     7
100
AcDbLine
 10
-2314.26258
 20
-818.54548
 30
0.0
 11
-2315.3151082074
 21
-826.4867392
 31
0.0
  0
LINE
  5
191
330
1F
100
AcDbEntity
  8
0
  6
Continuous
 62
     7
100
AcDbLine
 10
-2315.3151082074
 20
-826.4867392
 30
0.0
 11
-2314.36672
 21
-832.7263
 31
0.0
  0
LINE
  5
192
330
1F
100
AcDbEntity
  8
0
  6
Continuous
 62
     7
100
AcDbLine
 10
-2685.7575824458
 20
-736.1102923659
 30
0.0
 11
-2628.8308734372
 21
-741.3935823992
 31
0.0
  0
LINE
  5
193
330
1F
100
AcDbEntity
  8
0
  6
Continuous
 62
     7
100
AcDbLine
 10
-2628.8308734372
 20
-741.3935823992
 30
0.0
 11
-2552.4454381746
 21
-746.6069883349
 31
0.0
  0
LINE
  5
194
330
1F
100
AcDbEntity
  8
0
  6
Continuous
 62
     7
100
AcDbLine
 10
-2552.4454381746
 20
-746.6069883349
 30
0.0
 11
-2475.8742488512
 21
-750.2237519142
 31
0.0
  0
LINE
  5
195
330
1F
100
AcDbEntity
  8
0
  6
Continuous
 62
     7
100
AcDbLine
 10
-2475.8742488512
 20
-750.2237519142
 30
0.0
 11
-2385.4659934984
 21
-752.7859453573
 31
0.0
  0
LINE
  5
196
330
1F
100
AcDbEntity
  8
0
  6
Continuous
 62
     7
100
AcDbLine
 10
-2385.4659934984
 20
-752.7859453573
 30
0.0
 11
-2314.8385367439
 21
-753.6612709974
 31
0.0
  0
LINE
  5
197
330
1F
100
AcDbEntity
  8
0
  6
Continuous
 62
     7
100
AcDbLine
 10
-2696.0735321045
 20
-815.74894
 30
0.0
 11
-2694.1061161306
 21
-808.0090539507
 31
0.0
  0
LINE
  5
198
330
1F
100
AcDbEntity
  8
0
  6
Continuous
 62
     7
100
AcDbLine
 10
-2694.1061161306
 20
-808.0090539507
 30
0.0
 11
-2694.31262
 21
-801.72306
 31
0.0
  0
LINE
  5
199
330
1F
100
AcDbEntity
  8
0
  6
Continuous
 62
     7
100
AcDbLine
 10
-2828.74212
 20
-784.33676
 30
0.0
 11
-2830.7677769088
 21
-792.08770208
 31
0.0
  0
LINE
  5
19A
330
1F
100
AcDbEntity
  8
0
  6
Continuous
 62
     7
100
AcDbLine
 10
-2830.7677769088
 20
-792.08770208
 30
0.0
 11
-2830.59378
 21
-798.39566
 31
0.0
  0
LINE
  5
19B
330
1F
100
AcDbEntity
  8
0
  6
Continuous
 62
     7
100
AcDbLine
 10
-3181.1806072461
 20
-628.8435176784
 30
0.0
 11
-3153.9076358246
 21
-638.6542088358
 31
0.0
  0
LINE
  5
19C
330
1F
100
AcDbEntity
  8
0
  6
Continuous
 62
     7
100
AcDbLine
 10
-3153.9076358246
 20
-638.6542088358
 30
0.0
 11
-3108.2958980211
 21
-653.6453250867
 31
0.0
  0
LINE
  5
19D
330
1F
100
AcDbEntity
  8
0
  6
Continuous
 62
     7
100
AcDbLine
 10
-3108.2958980211
 20
-653.6453250867
 30
0.0
 11
-3036.00612
 21
-674.64178
 31
0.0
  0
LINE
  5
19E
330
1F
100
AcDbEntity
  8
0
  6
Continuous
 62
     7
100
AcDbLine
 10
-3036.0050201416
 20
-674.64178
 30
0.0
 11
-2970.7931662707
 21
-690.8336510554
 31
0.0
  0
LINE
  5
19F
330
1F
100
AcDbEntity
  8
0
  6
Continuous
 62
     7
100
AcDbLine
 10
-2970.7931662707
 20
-690.8336510554
 30
0.0
 11
-2905.2044668058
 21
-704.7084871309
 31
0.0
  0
LINE
  5
1A0
330
1F
100
AcDbEntity
  8
0
  6
Continuous
 62
     7
100
AcDbLine
 10
-2905.2044668058
 20
-704.7084871309
 30
0.0
 11
-2853.4306461067
 21
-714.0973439234
 31
0.0
  0
LINE
  5
1A1
330
1F
100
AcDbEntity
  8
0
  6
Continuous
 62
     7
100
AcDbLine
 10
-2853.4306461067
 20
-714.0973439234
 30
0.0
 11
-2820.7092108776
 21
-719.2286393412
 31
0.0
  0
LINE
  5
1A2
330
1F
100
AcDbEntity
  8
0
  6
Continuous
 62
     7
100
AcDbLine
 10
-3211.8173
 20
-703.57238
 30
0.0
 11
-3207.8969334643
 21
-696.6151689818
 31
0.0
  0
LINE
  5
1A3
330
1F
100
AcDbEntity
  8
0
  6
Continuous
 62
     7
100
AcDbLine
 10
-3207.8969334643
 20
-696.6151689818
 30
0.0
 11
-3206.45536
 21
-690.49392
 31
0.0
  0
LINE
  5
1A4
330
1F
100
AcDbEntity
  8
0
  6
Continuous
 62
     7
100
AcDbLine
 10
-3331.69006
 20
-638.62712
 30
0.0
 11
-3335.6668855744
 21
-645.580707881
 31
0.0
  0
LINE
  5
1A5
330
1F
100
AcDbEntity
  8
0
  6
Continuous
 62
     7
100
AcDbLine
 10
-3335.6668855744
 20
-645.580707881
 30
0.0
 11
-3337.14598
 21
-651.71574
 31
0.0
  0
LINE
  5
1A6
330
1F
100
AcDbEntity
  8
0
  6
Continuous
 62
     7
100
AcDbLine
 10
-3636.85328
 20
-369.49126
 30
0.0
 11
-3635.5219136
 21
-370.6243916326
 31
0.0
  0
LINE
  5
1A7
330
1F
100
AcDbEntity
  8
0
  6
Continuous
 62
     7
100
AcDbLine
 10
-3635.5219136
 20
-370.6243916326
 30
0.0
 11
-3634.47584
 21
-371.5131
 31
0.0
  0
LINE
  5
1A8
330
1F
100
AcDbEntity
  8
0
  6
Continuous
 62
     7
100
AcDbLine
 10
-3622.365511595
 20
-381.3348299597
 30
0.0
 11
-3590.3065425323
 21
-407.3353252718
 31
0.0
  0
LINE
  5
1A9
330
1F
100
AcDbEntity
  8
0
  6
Continuous
 62
     7
100
AcDbLine
 10
-3590.3065425323
 20
-407.3353252718
 30
0.0
 11
-3544.5693417946
 21
-441.2312861107
 31
0.0
  0
LINE
  5
1AA
330
1F
100
AcDbEntity
  8
0
  6
Continuous
 62
     7
100
AcDbLine
 10
-3544.5693417946
 20
-441.2312861107
 30
0.0
 11
-3497.3816224846
 21
-473.2139044517
 31
0.0
  0
LINE
  5
1AB
330
1F
100
AcDbEntity
  8
0
  6
Continuous
 62
     7
100
AcDbLine
 10
-3497.3816224846
 20
-473.2139044517
 30
0.0
 11
-3448.8607693005
 21
-503.2961022298
 31
0.0
  0
LINE
  5
1AC
330
1F
100
AcDbEntity
  8
0
  6
Continuous
 62
     7
100
AcDbLine
 10
-3448.8607693005
 20
-503.2961022298
 30
0.0
 11
-3396.7274309453
 21
-532.7865456302
 31
0.0
  0
LINE
  5
1AD
330
1F
100
AcDbEntity
  8
0
  6
Continuous
 62
     7
100
AcDbLine
 10
-3396.7274309453
 20
-532.7865456302
 30
0.0
 11
-3343.3947661282
 21
-560.2203058118
 31
0.0
  0
LINE
  5
1AE
330
1F
100
AcDbEntity
  8
0
  6
Continuous
 62
     7
100
AcDbLine
 10
-3343.3947661282
 20
-560.2203058118
 30
0.0
 11
-3306.339091984
 21
-577.5174874068
 31
0.0
  0
LINE
  5
1AF
330
1F
100
AcDbEntity
  8
0
  6
Continuous
 62
     7
100
AcDbLine
 10
-3677.12244
 20
-441.36818
 30
0.0
 11
-3671.0233230746
 21
-436.2131998502
 31
0.0
  0
LINE
  5
1B0
330
1F
100
AcDbEntity
  8
0
  6
Continuous
 62
     7
100
AcDbLine
 10
-3671.0233230746
 20
-436.2131998502
 30
0.0
 11
-3667.53902
 21
-430.97704
 31
0.0
  0
LINE
  5
1B1
330
1F
100
AcDbEntity
  8
0
  6
Continuous
 62
     7
100
AcDbLine
 10
-3766.8590545654
 20
-338.73186
 30
0.0
 11
-3773.0109633254
 21
-343.8646507098
 31
0.0
  0
LINE
  5
1B2
330
1F
100
AcDbEntity
  8
0
  6
Continuous
 62
     7
100
AcDbLine
 10
-3773.0109633254
 20
-343.8646507098
 30
0.0
 11
-3776.5355
 21
-349.10014
 31
0.0
  0
LINE
  5
1B3
330
1F
100
AcDbEntity
  8
0
  6
Continuous
 62
     7
100
AcDbLine
 10
-3946.8549956475
 20
5.7257107004
 30
0.0
 11
-3916.5925767251
 21
-43.8026157879
 31
0.0
  0
LINE
  5
1B4
330
1F
100
AcDbEntity
  8
0
  6
Continuous
 62
     7
100
AcDbLine
 10
-3916.5925767251
 20
-43.8026157879
 30
0.0
 11
-3873.6116608625
 21
-107.5747924041
 31
0.0
  0
LINE
  5
1B5
330
1F
100
AcDbEntity
  8
0
  6
Continuous
 62
     7
100
AcDbLine
 10
-3873.6116608625
 20
-107.5747924041
 30
0.0
 11
-3827.7754073549
 21
-169.118592928
 31
0.0
  0
LINE
  5
1B6
330
1F
100
AcDbEntity
  8
0
  6
Continuous
 62
     7
100
AcDbLine
 10
-3827.7754073549
 20
-169.118592928
 30
0.0
 11
-3789.7333701579
 21
-215.7352022412
 31
0.0
  0
LINE
  5
1B7
330
1F
100
AcDbEntity
  8
0
  6
Continuous
 62
     7
100
AcDbLine
 10
-3789.7333701579
 20
-215.7352022412
 30
0.0
 11
-3749.8867461284
 21
-260.6783520841
 31
0.0
  0
LINE
  5
1B8
330
1F
100
AcDbEntity
  8
0
  6
Continuous
 62
     7
100
AcDbLine
 10
-3749.8867461284
 20
-260.6783520841
 30
0.0
 11
-3721.3747748916
 21
-290.1954985788
 31
0.0
  0
LINE
  5
1B9
330
1F
100
AcDbEntity
  8
0
  6
Continuous
 62
     7
100
AcDbLine
 10
-4017.70088
 20
-33.0708
 30
0.0
 11
-4010.2724699648
 21
-30.1378703718
 31
0.0
  0
LINE
  5
1BA
330
1F
100
AcDbEntity
  8
0
  6
Continuous
 62
     7
100
AcDbLine
 10
-4010.2724699648
 20
-30.1378703718
 30
0.0
 11
-4005.29552
 21
-26.29154
 31
0.0
  0
LINE
  5
1BB
330
1F
100
AcDbEntity
  8
0
  6
Continuous
 62
     7
100
AcDbLine
 10
-4069.8699951172
 20
92.8878
 30
0.0
 11
-4077.34235584
 21
89.9918049792
 31
0.0
  0
LINE
  5
1BC
330
1F
100
AcDbEntity
  8
0
  6
Continuous
 62
     7
100
AcDbLine
 10
-4077.34235584
 20
89.9918049792
 30
0.0
 11
-4082.35658
 21
86.15934
 31
0.0
  0
LINE
  5
1BD
330
1F
100
AcDbEntity
  8
0
  6
Continuous
 62
     7
100
AcDbLine
 10
-4154.9186706543
 20
488.3277
 30
0.0
 11
-4133.7375884595
 21
420.558347543
 31
0.0
  0
LINE
  5
1BE
330
1F
100
AcDbEntity
  8
0
  6
Continuous
 62
     7
100
AcDbLine
 10
-4133.7375884595
 20
420.558347543
 30
0.0
 11
-4110.5141683482
 21
353.3620766323
 31
0.0
  0
LINE
  5
1BF
330
1F
100
AcDbEntity
  8
0
  6
Continuous
 62
     7
100
AcDbLine
 10
-4110.5141683482
 20
353.3620766323
 30
0.0
 11
-4090.7699690355
 21
300.997115495
 31
0.0
  0
LINE
  5
1C0
330
1F
100
AcDbEntity
  8
0
  6
Continuous
 62
     7
100
AcDbLine
 10
-4090.7699690355
 20
300.997115495
 30
0.0
 11
-4069.65404
 21
249.03684
 31
0.0
  0
LINE
  5
1C1
330
1F
100
AcDbEntity
  8
0
  6
Continuous
 62
     7
100
AcDbLine
 10
-4069.652557373
 20
249.03684
 30
0.0
 11
-4033.9377671706
 21
169.0202104781
 31
0.0
  0
LINE
  5
1C2
330
1F
100
AcDbEntity
  8
0
  6
Continuous
 62
     7
100
AcDbLine
 10
-4033.9377671706
 20
169.0202104781
 30
0.0
 11
-4011.9348829256
 21
124.4019614784
 31
0.0
  0
LINE
  5
1C3
330
1F
100
AcDbEntity
  8
0
  6
Continuous
 62
     7
100
AcDbLine
 10
-4253.4735155049
 20
966.1820420366
 30
0.0
 11
-4245.7146669292
 21
909.4541374256
 31
0.0
  0
LINE
  5
1C4
330
1F
100
AcDbEntity
  8
0
  6
Continuous
 62
     7
100
AcDbLine
 10
-4245.7146669292
 20
909.4541374256
 30
0.0
 11
-4233.778663455
 21
833.6669184234
 31
0.0
  0
LINE
  5
1C5
330
1F
100
AcDbEntity
  8
0
  6
Continuous
 62
     7
100
AcDbLine
 10
-4233.778663455
 20
833.6669184234
 30
0.0
 11
-4220.1837455846
 21
758.2195652749
 31
0.0
  0
LINE
  5
1C6
330
1F
100
AcDbEntity
  8
0
  6
Continuous
 62
     7
100
AcDbLine
 10
-4220.1837455846
 20
758.2195652749
 30
0.0
 11
-4201.8563007461
 21
669.8156113034
 31
0.0
  0
LINE
  5
1C7
330
1F
100
AcDbEntity
  8
0
  6
Continuous
 62
     7
100
AcDbLine
 10
-4201.8563007461
 20
669.8156113034
 30
0.0
 11
-4180.83492
 21
582.06132
 31
0.0
  0
LINE
  5
1C8
330
1F
100
AcDbEntity
  8
0
  6
Continuous
 62
     7
100
AcDbLine
 10
-4332.9315185547
 20
957.63842
 30
0.0
 11
-4324.9472199181
 21
957.559675936
 31
0.0
  0
LINE
  5
1C9
330
1F
100
AcDbEntity
  8
0
  6
Continuous
 62
     7
100
AcDbLine
 10
-4324.9472199181
 20
957.559675936
 30
0.0
 11
-4318.889
 21
959.25132
 31
0.0
  0
LINE
  5
1CA
330
1F
100
AcDbEntity
  8
0
  6
Continuous
 62
     7
100
AcDbLine
 10
-4333.8813781738
 20
1093.96784
 30
0.0
 11
-4341.893349216
 21
1094.0972124006
 31
0.0
  0
LINE
  5
1CB
330
1F
100
AcDbEntity
  8
0
  6
Continuous
 62
     7
100
AcDbLine
 10
-4341.893349216
 20
1094.0972124006
 30
0.0
 11
-4347.97962
 21
1092.43368
 31
0.0
  0
LINE
  5
1CC
330
1F
100
AcDbEntity
  8
0
  6
Continuous
 62
     7
100
AcDbLine
 10
-4294.8017863092
 20
1472.0550191729
 30
0.0
 11
-4290.2233293965
 21
1377.1971461133
 31
0.0
  0
LINE
  5
1CD
330
1F
100
AcDbEntity
  8
0
  6
Continuous
 62
     7
100
AcDbLine
 10
-4290.2233293965
 20
1377.1971461133
 30
0.0
 11
-4283.0272177638
 21
1262.4443581542
 31
0.0
  0
LINE
  5
1CE
330
1F
100
AcDbEntity
  8
0
  6
Continuous
 62
     7
100
AcDbLine
 10
-4283.0272177638
 20
1262.4443581542
 30
0.0
 11
-4275.9232452205
 21
1172.2857616773
 31
0.0
  0
LINE
  5
1CF
330
1F
100
AcDbEntity
  8
0
  6
Continuous
 62
     7
100
AcDbLine
 10
-4275.9232452205
 20
1172.2857616773
 30
0.0
 11
-4269.1900955907
 21
1101.8565358088
 31
0.0
  0
LINE
  5
1D0
330
1F
100
AcDbEntity
  8
0
  6
Continuous
 62
     7
100
AcDbLine
 10
-4374.30672
 20
1469.93102
 30
0.0
 11
-4366.3517670707
 21
1469.2395788429
 31
0.0
  0
LINE
  5
1D1
330
1F
100
AcDbEntity
  8
0
  6
Continuous
 62
     7
100
AcDbLine
 10
-4366.3517670707
 20
1469.2395788429
 30
0.0
 11
-4360.18178
 21
1470.45934
 31
0.0
  0
LINE
  5
1D2
330
1F
100
AcDbEntity
  8
0
  6
Continuous
 62
     7
100
AcDbLine
 10
-4364.7995
 20
1605.89214
 30
0.0
 11
-4372.7507637926
 21
1606.6362850598
 31
0.0
  0
LINE
  5
1D3
330
1F
100
AcDbEntity
  8
0
  6
Continuous
 62
     7
100
AcDbLine
 10
-4372.7507637926
 20
1606.6362850598
 30
0.0
 11
-4378.92952
 21
1605.4578
 31
0.0
  0
LINE
  5
1D4
330
1F
100
AcDbEntity
  8
0
  6
Continuous
 62
     7
100
AcDbLine
 10
-4300.1487038397
 20
1609.0538832614
 30
0.0
 11
-4300.5772410444
 21
1621.7646882701
 31
0.0
  0
LINE
  5
1D5
330
1F
100
AcDbEntity
  8
0
  6
Continuous
 62
     7
100
AcDbLine
 10
-4300.5772410444
 20
1621.7646882701
 30
0.0
 11
-4301.4011000021
 21
1647.5049599999
 31
0.0
  0
LINE
  5
1D6
330
1F
100
AcDbEntity
  8
0
  6
Continuous
 62
     7
100
AcDbLine
 10
-312.7093315125
 20
584.16444
 30
0.0
 11
-337.73411625
 21
494.51847375
 31
0.0
  0
LINE
  5
1D7
330
1F
100
AcDbEntity
  8
0
  6
Continuous
 62
     7
100
AcDbLine
 10
-337.73411625
 20
494.51847375
 30
0.0
 11
-339.2981510156
 21
488.9148864844
 31
0.0
  0
LINE
  5
1D8
330
1F
100
AcDbEntity
  8
0
  6
Continuous
 62
     7
100
AcDbLine
 10
-339.2981510156
 20
488.9148864844
 30
0.0
 11
-339.3959031885
 21
488.5644836865
 31
0.0
  0
LINE
  5
1D9
330
1F
100
AcDbEntity
  8
0
  6
Continuous
 62
     7
100
AcDbLine
 10
-339.3959031885
 20
488.5644836865
 30
0.0
 11
-339.4020126993
 21
488.5425388632
 31
0.0
  0
LINE
  5
1DA
330
1F
100
AcDbEntity
  8
0
  6
Continuous
 62
     7
100
AcDbLine
 10
-339.4020126993
 20
488.5425388632
 30
0.0
 11
-339.4023945437
 21
488.5411561497
 31
0.0
  0
LINE
  5
1DB
330
1F
100
AcDbEntity
  8
0
  6
Continuous
 62
     7
100
AcDbLine
 10
-238.9432067017
 20
2577.7355177819
 30
0.0
 11
-396.8380298507
 21
1272.2822987306
 31
0.0
  0
LINE
  5
1DC
330
1F
100
AcDbEntity
  8
0
  6
Continuous
 62
     7
100
AcDbLine
 10
-3972.6009435666
 20
812.979334158
 30
0.0
 11
-3954.672803963
 21
781.840534216
 31
0.0
  0
LINE
  5
1DD
330
1F
100
AcDbEntity
  8
0
  6
Continuous
 62
     7
100
AcDbLine
 10
-4004.1166837552
 20
875.1433404504
 30
0.0
 11
-3972.6009435666
 21
812.979334158
 31
0.0
  0
LINE
  5
1DE
330
1F
100
AcDbEntity
  8
0
  6
Continuous
 62
     7
100
AcDbLine
 10
-4281.9418332983
 20
2577.7355177819
 30
0.0
 11
-4124.0470101493
 21
1272.2822987306
 31
0.0
  0
LWPOLYLINE
  5
1DF
330
1F
100
AcDbEntity
  8
0
  6
Continuous
 62
     7
100
AcDbPolyline
 90
        8
 70
   128
 43
0.0
 10
-396.8379497528
 20
1272.2822987306
 10
-406.2267028986
 20
1214.0897850676
 10
-418.0251902968
 20
1156.741523336
 10
-432.2334920452
 20
1100.2375135359
 10
-448.851608144
 20
1044.5777556673
 10
-468.8457392671
 20
987.1730459809
 10
-491.4846553007
 20
930.6949075752
 10
-516.7683562448
 20
875.1433404504
  0
LWPOLYLINE
  5
1E0
330
1F
100
AcDbEntity
  8
0
  6
Continuous
 62
     7
100
AcDbPolyline
 90
        8
 70
   128
 43
0.0
 10
-4124.0463256836
 20
1272.2822987306
 10
-4114.6583371014
 20
1214.0897850676
 10
-4102.8598497032
 20
1156.741523336
 10
-4088.6515479548
 20
1100.2375135359
 10
-4072.033431856
 20
1044.5777556673
 10
-4052.0393007329
 20
987.1730459808
 10
-4029.4003846993
 20
930.6949075752
 10
-4004.1166837552
 20
875.1433404504
  0
POINT
  5
1E1
330
1F
100
AcDbEntity
  8
0
  6
Continuous
 62
     7
100
AcDbPoint
 10
-396.8380298507
 20
1272.2822987306
 30
0.0
  0
ENDSEC
  0
SECTION
  2
OBJECTS
  0
DICTIONARY
  5
C
330
0
100
AcDbDictionary
281
     1
  3
ACAD_GROUP
350
D
  3
ACAD_LAYOUT
350
1A
  3
ACAD_MLINESTYLE
350
17
  3
ACAD_PLOTSETTINGS
350
19
  3
ACAD_PLOTSTYLENAME
350
E
  3
ACAD_SCALELIST
350
47
  0
DICTIONARY
  5
D
102
{ACAD_REACTORS
330
C
102
}
330
C
100
AcDbDictionary
281
     1
  0
DICTIONARY
  5
1A
102
{ACAD_REACTORS
330
C
102
}
330
C
100
AcDbDictionary
281
     1
  3
Layout1
350
1E
  3
Layout2
350
26
  3
Model
350
22
  0
DICTIONARY
  5
17
102
{ACAD_REACTORS
330
C
102
}
330
C
100
AcDbDictionary
281
     1
  3
Standard
350
18
  0
DICTIONARY
  5
19
102
{ACAD_REACTORS
330
C
102
}
330
C
100
AcDbDictionary
281
     1
  0
ACDBDICTIONARYWDFLT
  5
E
102
{ACAD_REACTORS
330
C
102
}
330
C
100
AcDbDictionary
281
     1
  3
Normal
350
F
100
AcDbDictionaryWithDefault
340
F
  0
DICTIONARY
  5
47
102
{ACAD_REACTORS
330
C
102
}
330
C
100
AcDbDictionary
281
     1
  3
A0
350
48
  3
A1
350
49
  3
A2
350
4A
  3
A3
350
4B
  3
A4
350
4C
  3
A5
350
4D
  3
A6
350
4E
  3
A7
350
4F
  3
A8
350
50
  3
A9
350
51
  3
B0
350
52
  3
B1
350
53
  3
B2
350
54
  3
B3
350
55
  3
B4
350
56
  3
B5
350
57
  3
B6
350
58
  3
B7
350
59
  3
B8
350
5A
  3
B9
350
5B
  3
C0
350
5C
  3
C1
350
5D
  3
C2
350
5E
  3
C3
350
5F
  3
C4
350
60
  3
C5
350
61
  3
C6
350
62
  3
C7
350
63
  3
C8
350
64
  3
C9
350
65
  3
D0
350
66
  3
D1
350
67
  3
D2
350
68
  0
LAYOUT
  5
1E
102
{ACAD_REACTORS
330
1A
102
}
330
1A
100
AcDbPlotSettings
  1

  2
none_device
  4

  6

 40
0.0
 41
0.0
 42
0.0
 43
0.0
 44
0.0
 45
0.0
 46
0.0
 47
0.0
 48
0.0
 49
0.0
140
0.0
141
0.0
142
1.0
143
1.0
 70
   688
 72
     1
 73
     0
 74
     5
  7

 75
    16
147
1.0
148
0.0
149
0.0
100
AcDbLayout
  1
Layout1
 70
     1
 71
     1
 10
0.0
 20
0.0
 11
420.0
 21
297.0
 12
0.0
 22
0.0
 32
0.0
 14
1.0000000000E+20
 24
1.0000000000E+20
 34
1.0000000000E+20
 15
-1.0000000000E+20
 25
-1.0000000000E+20
 35
-1.0000000000E+20
146
0.0
 13
0.0
 23
0.0
 33
0.0
 16
1.0
 26
0.0
 36
0.0
 17
0.0
 27
1.0
 37
0.0
 76
     0
330
1B
  0
LAYOUT
  5
26
102
{ACAD_REACTORS
330
1A
102
}
330
1A
100
AcDbPlotSettings
  1

  2
none_device
  4

  6

 40
0.0
 41
0.0
 42
0.0
 43
0.0
 44
0.0
 45
0.0
 46
0.0
 47
0.0
 48
0.0
 49
0.0
140
0.0
141
0.0
142
1.0
143
1.0
 70
   688
 72
     1
 73
     0
 74
     5
  7

 75
    16
147
1.0
148
0.0
149
0.0
100
AcDbLayout
  1
Layout2
 70
     1
 71
     2
 10
0.0
 20
0.0
 11
0.0
 21
0.0
 12
0.0
 22
0.0
 32
0.0
 14
0.0
 24
0.0
 34
0.0
 15
0.0
 25
0.0
 35
0.0
146
0.0
 13
0.0
 23
0.0
 33
0.0
 16
1.0
 26
0.0
 36
0.0
 17
0.0
 27
1.0
 37
0.0
 76
     0
330
23
  0
LAYOUT
  5
22
102
{ACAD_REACTORS
330
1A
102
}
330
1A
100
AcDbPlotSettings
  1

  2
none_device
  4
ANSI_A_(11.00_x_8.50_Inches)
  6

 40
6.35
 41
19.05
 42
6.35000508
 43
19.05000254
 44
279.4
 45
215.9
 46
271.4753244784
 47
35.1486434589
 48
0.0
 49
0.0
140
0.0
141
0.0
142
0.0024057272
143
1.0
 70
  1696
 72
     0
 73
     0
 74
     0
  7

 75
     0
147
0.0179189148
148
-1300.4909072572
149
0.0
100
AcDbLayout
  1
Model
 70
     1
 71
     0
 10
0.0
 20
0.0
 11
420.0
 21
297.0
 12
0.0
 22
0.0
 32
0.0
 14
-4444.1762745596
 24
-869.3026143831
 34
0.0
 15
-76.7062999761
 25
2628.6002801214
 35
0.0
146
0.0
 13
0.0
 23
0.0
 33
0.0
 16
1.0
 26
0.0
 36
0.0
 17
0.0
 27
1.0
 37
0.0
 76
     0
330
1F
331
29
  0
MLINESTYLE
  5
18
102
{ACAD_REACTORS
330
17
102
}
330
17
100
AcDbMlineStyle
  2
Standard
 70
     0
  3

 62
   256
 51
90.0
 52
90.0
 71
     2
 49
0.5
 62
   256
  6
BYLAYER
 49
-0.5
 62
   256
  6
BYLAYER
  0
ACDBPLACEHOLDER
  5
F
102
{ACAD_REACTORS
330
E
102
}
330
E
  0
SCALE
  5
48
102
{ACAD_REACTORS
330
47
102
}
330
47
100
AcDbScale
 70
     0
300
1:1
140
1.0
141
1.0
290
     1
  0
SCALE
  5
49
102
{ACAD_REACTORS
330
47
102
}
330
47
100
AcDbScale
 70
     0
300
1:2
140
1.0
141
2.0
290
     0
  0
SCALE
  5
4A
102
{ACAD_REACTORS
330
47
102
}
330
47
100
AcDbScale
 70
     0
300
1:4
140
1.0
141
4.0
290
     0
  0
SCALE
  5
4B
102
{ACAD_REACTORS
330
47
102
}
330
47
100
AcDbScale
 70
     0
300
1:5
140
1.0
141
5.0
290
     0
  0
SCALE
  5
4C
102
{ACAD_REACTORS
330
47
102
}
330
47
100
AcDbScale
 70
     0
300
1:8
140
1.0
141
8.0
290
     0
  0
SCALE
  5
4D
102
{ACAD_REACTORS
330
47
102
}
330
47
100
AcDbScale
 70
     0
300
1:10
140
1.0
141
10.0
290
     0
  0
SCALE
  5
4E
102
{ACAD_REACTORS
330
47
102
}
330
47
100
AcDbScale
 70
     0
300
1:16
140
1.0
141
16.0
290
     0
  0
SCALE
  5
4F
102
{ACAD_REACTORS
330
47
102
}
330
47
100
AcDbScale
 70
     0
300
1:20
140
1.0
141
20.0
290
     0
  0
SCALE
  5
50
102
{ACAD_REACTORS
330
47
102
}
330
47
100
AcDbScale
 70
     0
300
1:30
140
1.0
141
30.0
290
     0
  0
SCALE
  5
51
102
{ACAD_REACTORS
330
47
102
}
330
47
100
AcDbScale
 70
     0
300
1:40
140
1.0
141
40.0
290
     0
  0
SCALE
  5
52
102
{ACAD_REACTORS
330
47
102
}
330
47
100
AcDbScale
 70
     0
300
1:50
140
1.0
141
50.0
290
     0
  0
SCALE
  5
53
102
{ACAD_REACTORS
330
47
102
}
330
47
100
AcDbScale
 70
     0
300
1:100
140
1.0
141
100.0
290
     0
  0
SCALE
  5
54
102
{ACAD_REACTORS
330
47
102
}
330
47
100
AcDbScale
 70
     0
300
2:1
140
2.0
141
1.0
290
     0
  0
SCALE
  5
55
102
{ACAD_REACTORS
330
47
102
}
330
47
100
AcDbScale
 70
     0
300
4:1
140
4.0
141
1.0
290
     0
  0
SCALE
  5
56
102
{ACAD_REACTORS
330
47
102
}
330
47
100
AcDbScale
 70
     0
300
8:1
140
8.0
141
1.0
290
     0
  0
SCALE
  5
57
102
{ACAD_REACTORS
330
47
102
}
330
47
100
AcDbScale
 70
     0
300
10:1
140
10.0
141
1.0
290
     0
  0
SCALE
  5
58
102
{ACAD_REACTORS
330
47
102
}
330
47
100
AcDbScale
 70
     0
300
100:1
140
100.0
141
1.0
290
     0
  0
SCALE
  5
59
102
{ACAD_REACTORS
330
47
102
}
330
47
100
AcDbScale
 70
     0
300
1/128" = 1'-0"
140
0.0078125
141
12.0
290
     0
  0
SCALE
  5
5A
102
{ACAD_REACTORS
330
47
102
}
330
47
100
AcDbScale
 70
     0
300
1/64" = 1'-0"
140
0.015625
141
12.0
290
     0
  0
SCALE
  5
5B
102
{ACAD_REACTORS
330
47
102
}
330
47
100
AcDbScale
 70
     0
300
1/32" = 1'-0"
140
0.03125
141
12.0
290
     0
  0
SCALE
  5
5C
102
{ACAD_REACTORS
330
47
102
}
330
47
100
AcDbScale
 70
     0
300
1/16" = 1'-0"
140
0.0625
141
12.0
290
     0
  0
SCALE
  5
5D
102
{ACAD_REACTORS
330
47
102
}
330
47
100
AcDbScale
 70
     0
300
3/32" = 1'-0"
140
0.09375
141
12.0
290
     0
  0
SCALE
  5
5E
102
{ACAD_REACTORS
330
47
102
}
330
47
100
AcDbScale
 70
     0
300
1/8" = 1'-0"
140
0.125
141
12.0
290
     0
  0
SCALE
  5
5F
102
{ACAD_REACTORS
330
47
102
}
330
47
100
AcDbScale
 70
     0
300
3/16" = 1'-0"
140
0.1875
141
12.0
290
     0
  0
SCALE
  5
60
102
{ACAD_REACTORS
330
47
102
}
330
47
100
AcDbScale
 70
     0
300
1/4" = 1'-0"
140
0.25
141
12.0
290
     0
  0
SCALE
  5
61
102
{ACAD_REACTORS
330
47
102
}
330
47
100
AcDbScale
 70
     0
300
3/8" = 1'-0"
140
0.375
141
12.0
290
     0
  0
SCALE
  5
62
102
{ACAD_REACTORS
330
47
102
}
330
47
100
AcDbScale
 70
     0
300
1/2" = 1'-0"
140
0.5
141
12.0
290
     0
  0
SCALE
  5
63
102
{ACAD_REACTORS
330
47
102
}
330
47
100
AcDbScale
 70
     0
300
3/4" = 1'-0"
140
0.75
141
12.0
290
     0
  0
SCALE
  5
64
102
{ACAD_REACTORS
330
47
102
}
330
47
100
AcDbScale
 70
     0
300
1" = 1'-0"
140
1.0
141
12.0
290
     0
  0
SCALE
  5
65
102
{ACAD_REACTORS
330
47
102
}
330
47
100
AcDbScale
 70
     0
300
1-1/2" = 1'-0"
140
1.5
141
12.0
290
     0
  0
SCALE
  5
66
102
{ACAD_REACTORS
330
47
102
}
330
47
100
AcDbScale
 70
     0
300
3" = 1'-0"
140
3.0
141
12.0
290
     0
  0
SCALE
  5
67
102
{ACAD_REACTORS
330
47
102
}
330
47
100
AcDbScale
 70
     0
300
6" = 1'-0"
140
6.0
141
12.0
290
     0
  0
SCALE
  5
68
102
{ACAD_REACTORS
330
47
102
}
330
47
100
AcDbScale
 70
     0
300
1'-0" = 1'-0"
140
12.0
141
12.0
290
     0
  0
ENDSEC
  0
EOF
